<?xml version="1.0" encoding="utf-8"?>
<!-- Generator: Adobe Illustrator 23.1.0, SVG Export Plug-In . SVG Version: 6.00 Build 0)  -->
<svg version="1.1" id="Calque_1" xmlns="http://www.w3.org/2000/svg" xmlns:xlink="http://www.w3.org/1999/xlink" x="0px" y="0px"
	 viewBox="0 0 326 326.5" style="enable-background:new 0 0 326 326.5;" xml:space="preserve">
<path d="M184.8,5.1c8.6-0.3,16.5,1.7,24,5.8c10.5,5.8,21.6,10.9,31.4,17.8c13.4,9.4,24.8,21.2,33.3,35.4c10.2,17.2,20,34.6,30,51.9
	c2.4,4.1,5,7.9,7.3,12.1c1.3,2.5,2.3,5.2,3.1,7.9c1.7,5.8,3.8,11.6,4.6,17.6c0.9,6.2,0.8,12.7,0.4,19c-0.4,6.1-1.6,12.2-2.7,18.3
	c-1,6.1-1.9,12.2-3.6,18.1c-3.8,13.2-9.6,25.7-18.3,36.4c-4.7,5.9-10.3,11.2-16,16.2c-7.3,6.5-14.8,12.9-22.8,18.6
	c-8,5.7-16.3,11.2-25.1,15.2c-12.3,5.6-25.1,10-37.9,14.3c-12,4-24.3,6.7-37.1,7.1c-5.2,0.2-10.3,1.6-15.5,1.5
	c-5.9-0.1-11.8-1.1-17.7-1.9c-4.6-0.7-9.3-1.5-13.8-2.8c-5.4-1.7-10.8-3.7-16-6.1c-10.1-4.6-19.8-10-28.2-17.3
	c-15.4-13.3-28.9-28-37.9-46.6c-5.7-11.6-9.2-23.8-11.7-36.4c-1.5-7.4-3.1-14.7-4.4-22.1c-0.7-3.9-1.3-7.8-1.5-11.8
	c-0.7-11.8-1-23.6-1.8-35.4c-0.9-13.5,2-26.3,7.8-38.3C21.4,85.7,29.8,72.9,39.8,61c6.5-7.7,13.8-14.3,22-19.8
	c7.6-4.8,15.2-9.6,23.2-13c11.3-4.8,22.9-8.8,34.7-12.1c10.1-2.8,20.6-4.1,30.9-6c8-1.5,16-2.9,24.1-4.2
	C178,5.3,181.4,5.4,184.8,5.1z M36.6,153c-2.1,17.8,1.9,34.9,5.9,51.9c2,8.2,5.4,16,7,24.2c3.2,15.5,13.8,25.9,24.7,35.6
	c7.7,6.9,17.3,12.2,26.8,16.4c9.1,3.9,19.1,6.9,29,7.6c16.6,1.2,33.1,0.3,49.6-3.9c17.2-4.4,33.7-10,49.5-18.1
	c7.2-3.7,13.6-8.7,20.6-12.7c8.5-4.9,15.1-12,21.1-19.3c9.4-11.5,17-24.2,20.1-39c1-4.8,1.9-9.7,2.2-14.6c0.2-2.7-1.1-5.5-1.6-8.3
	c-1.6-9.4-2.5-18.9-4.9-28.1c-4.9-19.1-12.5-37.1-23.6-53.6c-11.3-16.9-25.5-31.2-40.1-45.2c-2.9-2.8-7-5.4-10.9-6.1
	c-10.7-1.8-21.6-2.9-32.4-3.7c-8-0.6-16-0.1-24-0.1c-1.4,0-2.7,0.1-4.1,0.3c-7.1,1-14.1,2.6-21.2,3C115,40.1,101,44.9,88.3,53
	c-14,8.8-25.7,20.3-35.2,33.9c-10.4,14.8-16.9,31.1-16.5,49.6C36.7,142,36.6,147.5,36.6,153z"/>
<path d="M211.1,257c-9.2,0.7-15.8-4.4-21.7-10c-12.2-11.6-23.8-23.9-35.9-35.6c-2.8-2.7-6.3-4.9-9.9-6.2c-3.6-1.2-7.3,0.5-10.3,3.1
	c-7,6.4-14,12.7-21,19.1c-7.2,6.6-15.9,10.1-25,12.7c-4.3,1.2-8.8-3.8-9.4-9.4c-1-8.8,2.7-15.4,9.5-20.6c11-8.4,22.1-16.9,33.1-25.3
	c4.1-3.2,5.8-10.5,2.4-15.6c-6.3-9.4-13.5-18.2-20.1-27.5c-5.2-7.3-9.2-15.3-8.4-24.6c0.5-6.5,9.1-10,14.8-5.9
	c4.3,3.1,8.4,6.9,11.4,11.2c5.9,8.7,11,17.9,16.4,27c1.1,1.8,2.1,3.7,3.4,5.3c4,4.9,8,7.2,14.5,3c3.6-2.4,7.4-4.6,10.8-7.3
	c13-10.1,25.9-20.4,38.8-30.7c2.6-2.1,5.2-4.2,7.8-6.3c6.1-5,16.3-4.5,21.6,1.1c1.9,2,2.9,4.7,1.1,7.2c-2.7,3.8-5.6,7.7-9,10.9
	c-6.4,5.9-13.2,11.5-20,16.9c-7.5,5.9-15.5,11.3-23,17.1c-4.2,3.2-8.2,6.7-11.9,10.5c-2.7,2.8-2.4,7.1,0.1,10.2
	c10,12.3,19.9,24.5,31.6,35.2c5.1,4.6,10.8,8,17.9,8.1c8,0.2,9.4,1.1,8.5,9.1c-0.7,6.8-2.9,13.3-10.4,15.8
	C216.3,256.7,213.6,256.7,211.1,257z"/>
</svg>
