<?xml version="1.0" encoding="utf-8"?>
<!-- Generator: Adobe Illustrator 23.1.0, SVG Export Plug-In . SVG Version: 6.00 Build 0)  -->
<svg version="1.1" id="Calque_1" xmlns="http://www.w3.org/2000/svg" xmlns:xlink="http://www.w3.org/1999/xlink" x="0px" y="0px"
	 viewBox="0 0 325.2 276.4" style="enable-background:new 0 0 325.2 276.4;" xml:space="preserve">
<path d="M233.9,11.9C1.4,11.9-10-7.7,29.1,200.7c29,22.9,42.6-32.6,72.5,51.6c30.8-98.4,103.4-33,167.3-60.4
	c30.9-10.1,11.6-136.6,11.6-148.8c-3.8-19.8-18.9-24.2-36.3-30.4c75.5,5.3,68.7,45.9,72.2,99.5c-1.1,45.1,10.6,84.9-22.1,104.3
	c-19.2,10.6-39.9,12.8-60.4,11.3c-142-20.9-88.2,80.4-140.1,28c-32.6-83.5-46.7-10.6-75.4-53.7C4.9,145.8-4.6,40.9,18.2,26.8
	C54.8-7.6,216.3,8.1,233.9,11.9z M161.3,221.7c-3.1-19.2-12.6-16.3-26.4-10.1C145.9,226.5,143.7,231.4,161.3,221.7z M129.4,246.2
	c16-15,9-16.1-1.1-31C121.6,231.7,113,233.7,129.4,246.2z M291,97.6c-0.7,21.9-2,20.8,17.7,27C310.7,106.2,306.9,105.2,291,97.6z
	 M297.1,203.7c14.1-16.8,7.5-18.9-5.9-29.8C281.7,187.8,289.4,192.3,297.1,203.7z M308.6,175.6c1.8-19.8-1.1-19.5-17.6-27.1
	C289.1,168.9,293.2,167.1,308.6,175.6z M307.5,95.8c3.1-12.6-5.9-17.8-18.9-23.4C289.1,96,289.8,91.6,307.5,95.8z M280.4,193.7
	c-13.4,7.5-14,7.1-7.2,22.3c6.3-2.6,12.6-5.1,18.7-7.6C287.8,203,284.2,198.5,280.4,193.7z M272.3,20.6c7.3,12,11.7,26.6,30.6,27.9
	C297,33.7,284.9,26.5,272.3,20.6z M187.7,218.1c-2.7-14.5-9.8-13.6-23.7-12.9C168.9,222.5,170.9,219.9,187.7,218.1z M105,261.6
	c8.2,17,28-7.8,9.7-16.7C111.6,250.3,108.5,255.7,105,261.6z M244.8,207.8c0.4,4.3,0.8,8,1.3,12.5c5.9-0.6,11.8-1.2,18.3-1.9
	C260.6,202,260,204.3,244.8,207.8z M308,146.4c2.8-12.1-5.5-15.4-17-20.2C289.4,143,292.2,141.7,308,146.4z M212.5,217.6
	c1.1-13.4-7.7-11.1-19.4-11.9c0,4.4,0,8,0,11.9C199.4,217.6,205.8,217.6,212.5,217.6z M306.5,70.4c0.4-9.8-10.8-12.8-19.6-19.1
	C286.6,71.6,292.1,66.7,306.5,70.4z M220.1,207.3c-1.3,12.8,6.1,11.3,18,12C236.8,207.3,232.7,207.1,220.1,207.3z"/>
<path d="M57.3,109c60.6-7.7,121.5-9.6,182.6-7.7C228.4,108.4,74.9,114.9,57.3,109z"/>
<path d="M58.6,69.9c60.6-7.7,121.5-9.4,182.6-7.6C230.4,69.3,71.3,76,58.6,69.9z"/>
<path d="M211.6,148.2c-51.6,6.7-103.3,9.2-155.2,6.4C69.5,146.8,198,141.3,211.6,148.2z"/>
</svg>
