<?xml version="1.0" encoding="utf-8"?>
<!-- Generator: Adobe Illustrator 23.1.0, SVG Export Plug-In . SVG Version: 6.00 Build 0)  -->
<svg version="1.1" id="Calque_1" xmlns="http://www.w3.org/2000/svg" xmlns:xlink="http://www.w3.org/1999/xlink" x="0px" y="0px"
	 viewBox="0 0 164.9 100.6" style="enable-background:new 0 0 164.9 100.6;" xml:space="preserve">
<path d="M93.9,52.3c0.5,1.2,1,2.3,1.4,3.4c1.7,3.7,3.4,7.3,5,11c1.9,4.5,3.8,9,5.6,13.5c1.6,4,3,8.1,4.6,12.1c1,2.6-0.3,3.2-2.2,3.5
	c-2,0.3-4,0.7-6,1c-1.7,0.3-3.5,0.4-5.2,0.6c-2.5,0.3-5,0.5-7.6,0.7c-1.2,0.1-2.3,0.2-3.5,0.2c-2.5,0.1-5,0.2-7.5,0.2
	c-13.9,0.1-27.7,0.1-41.5,0.2c-1.7,0-2.7-0.6-3.4-2.1c-0.9-2.2-1.9-4.3-2.8-6.4c-2-4.4-4-8.8-5.8-13.3c-2-5-4-10-5.8-15.1
	c-1.5-4-2.8-8-4.1-12.1c-1.9-5.8-3.7-11.6-5.5-17.5c-1.3-4.3-2.7-8.5-4-12.8c-1.2-4-2.4-8-3.5-11.9C1.6,6.2,2.5,5.1,3.8,5.1
	c2.7-0.2,5.4-0.4,8-0.5c2.4-0.2,4.9-0.4,7.3-0.5c2.7-0.2,5.4-0.4,8.1-0.5c1.9-0.1,3.9-0.2,5.8-0.4c3.1-0.2,6.1-0.4,9.2-0.5
	c2.2-0.1,4.4-0.2,6.6-0.4c2.4-0.1,4.9-0.3,7.3-0.4C61.5,1.7,66.8,1.6,72,1.5c1.4,0,2.2,0.6,2.4,2c0.7,4.4,2.1,8.6,3.7,12.7
	c1.1,3,2.4,5.9,3.6,8.9c0.2,0.4,0.3,0.6,0.9,0.5c4.2-1,8.3-2,12.5-2.9c3.8-0.8,7.5-1.5,11.3-2.2c3.1-0.6,6.1-1.2,9.2-1.8
	c3.2-0.6,6.4-1.1,9.6-1.7c2.6-0.5,5.2-1,7.8-1.5c2.1-0.4,4.3-0.8,6.4-1.2c1.2-0.3,2.4-0.7,3.6-1c1.7-0.3,3.3-0.5,5-0.7
	c1-0.1,2-0.2,3-0.2c2.4,0.2,4.8,0.5,6.8,2c1.4,1,2.4,2.4,2.8,4.1c0.8,2.9,1.5,5.8,2,8.8c0.5,2.8,0.4,5.6-1.6,8.1
	c-1.3,1.6-3.1,2.8-4.9,3.8c-2.6,1.3-5.3,2.3-8.2,2.8c-2.9,0.5-5.8,1.2-8.7,1.8c-3,0.6-6.1,1.2-9.1,1.8c-3.2,0.6-6.3,1.2-9.5,1.8
	c-2.8,0.5-5.5,1-8.3,1.5c-4.3,0.8-8.6,1.7-12.9,2.5C97.8,51.6,95.9,52,93.9,52.3z M37.1,94.9c2.4,0,4.7,0,7.1,0
	c10.4-0.1,20.8-0.1,31.2-0.2c1.4,0,2.8-0.1,4.2-0.2c3.1-0.1,6.3-0.2,9.4-0.4c1.9-0.1,3.8-0.2,5.6-0.4c2.9-0.3,5.8-0.7,8.7-1.1
	c1-0.1,2-0.4,3.1-0.6c-1-2.6-2-5.1-3-7.6c-1.9-4.8-3.8-9.6-5.8-14.3c-1.5-3.7-3.2-7.3-4.9-10.9c-0.8-1.9-1.7-3.8-2.6-5.7
	c-0.1-0.3-0.6-0.5-0.9-0.5c-2.2,0.3-4.4,0.8-6.6,1.1c-1.4,0.2-2.9,0.7-4.3,0.6c-1.8-0.1-3.6-0.5-5.3-1c-4.2-1.2-8.5-2.4-12.7-3.7
	c-1.7-0.5-3.4-1-4.7-2.4c-0.2-0.2-0.7-0.2-1-0.2c-1.9,0.1-3.7,0.3-5.6,0.5c-1.5,0.1-3,0.2-4.5,0.4c-2.2,0.3-4.5,0.6-6.7,0.9
	c-2.4,0.3-4.7,0.6-7.1,1c-1,0.1-2.1-0.5-2.3-1.4c-0.2-1.1,0.6-2.3,1.6-2.5c3.2-0.4,6.3-0.9,9.5-1.3c3.5-0.4,7-0.7,10.5-1.1
	c0.8-0.1,1.6-0.1,2.4-0.2c1.5-0.1,2.7-0.4,3.8-1.8c1.3-1.7,3-3,4.5-4.4c2.5-2.3,5-4.5,7.4-6.8c-1.6,0.2-3.3,0.3-5,0.5
	c-2.2,0.2-4.4,0.5-6.6,0.7c-1.5,0.1-3.1,0.2-4.6,0.4c-2.5,0.2-5,0.5-7.5,0.7c-1.5,0.1-3,0.2-4.4,0.4c-2,0.2-4,0.4-6,0.7
	c-1.6,0.2-3.2,0.4-4.8,0.6c-1.5,0.2-3,0.5-4.5,0.6c-0.9,0.1-1.7-0.6-1.8-1.5c-0.1-1.3,0.3-2.1,1.4-2.3c1.6-0.3,3.1-0.5,4.7-0.7
	c2-0.3,3.9-0.5,5.9-0.7c2.2-0.3,4.3-0.5,6.5-0.7c1.5-0.2,3.1-0.2,4.6-0.4c2.4-0.2,4.7-0.5,7.1-0.7c1.5-0.1,3-0.2,4.5-0.4
	c2.2-0.2,4.4-0.5,6.6-0.7c1.6-0.2,3.2-0.3,4.8-0.6c1.6-0.3,2.5,0.1,2.9,1.5c1.9-0.6,3.7-1.2,5.6-1.8c-2.9-7-5.8-13.9-7.3-21.4
	c-2,0.1-4,0.2-5.9,0.3c-3.4,0.1-6.7,0.2-10.1,0.4c-2.4,0.1-4.8,0.2-7.3,0.4c-2.1,0.1-4.2,0.2-6.3,0.4c-2.9,0.2-5.8,0.4-8.8,0.5
	c-2.1,0.1-4.1,0.2-6.2,0.4C23.7,7.6,21,7.8,18.4,8c-3.4,0.2-6.7,0.5-10.1,0.7c-1.9,0.1-1.9,0.1-1.4,2c1.7,5.5,3.4,11,5.1,16.5
	c1.7,5.6,3.5,11.2,5.3,16.7c1.6,5,3.2,10,4.9,14.9c1.5,4.4,3.1,8.7,4.8,13c1.2,3.1,2.6,6.2,4,9.2C33,85.6,35,90.1,37.1,94.9z
	 M81.3,50.7c17-3.2,34.1-6.4,51.3-9.6c-1.6-7-2.8-13.9-4.5-20.7c-2.3,0.4-4.4,0.7-6.5,1.1c-3.6,0.6-7.1,1.3-10.7,2
	c-4,0.8-8.1,1.5-12.1,2.4c-4.8,1-9.5,2.1-14.2,3.2c-2.1,0.5-4.1,1-6.2,1.5c-0.7,0.2-0.9,0.5-0.7,1.2c0.2,0.7,0.3,1.4,0.4,2.2
	c0.2,1.4,0.4,2.9,0.7,4.3C79.4,42.3,80.3,46.4,81.3,50.7z M144.6,16.9c0,0.4,0,0.6,0,0.8c0.5,2.3,0.9,4.6,1.4,6.9
	c0.9,4.1,1.7,8.3,2.6,12.4c0.1,0.7,0.4,0.9,1,0.7c2.4-0.8,4.7-1.8,6.9-3.2c2.3-1.5,3-3.6,2.6-6.2c-0.4-2.6-1-5.1-1.6-7.6
	c-0.4-1.9-1.3-3.4-3.3-3.9c-0.8-0.2-1.6-0.4-2.4-0.4C149.3,16.5,147,16.7,144.6,16.9z M73.6,32.5c0,0-0.1,0.1-0.2,0.1
	c-2.6,1.5-4.8,3.6-7.1,5.5c-0.2,0.2-0.2,0.6-0.2,0.9c0,0.3,0.2,0.6,0.2,0.9c0.6,2.7,1.2,5.5,1.8,8.2c3,0.9,6,1.8,9.2,2.8
	C76,44.6,74.8,38.5,73.6,32.5z M145,38.7c-1.5-6.9-2.9-13.7-4.4-20.7c-0.9,0.2-1.8,0.3-2.7,0.5c1.5,6.9,3,13.8,4.5,20.7
	C143.3,39,144.1,38.9,145,38.7z M136.4,40.4c0.6-0.1,1.1-0.1,1.5-0.3c0.2-0.1,0.5-0.4,0.5-0.5c-0.4-2.3-0.8-4.5-1.3-6.8
	c-0.5-2.6-1.1-5.2-1.7-7.8c-0.4-1.9-0.9-3.8-1.3-5.7c-0.8,0.2-1.6,0.3-2.2,0.4C133.4,26.6,134.9,33.5,136.4,40.4z M62.8,41.7
	c-1.4,1.2-2.6,2.4-3.9,3.5c0,0.1,0.1,0.2,0.1,0.3c1.6,0.5,3.1,1,4.9,1.6C63.5,45.2,63.1,43.4,62.8,41.7z"/>
</svg>
