<?xml version="1.0" encoding="utf-8"?>
<!-- Generator: Adobe Illustrator 23.1.0, SVG Export Plug-In . SVG Version: 6.00 Build 0)  -->
<svg version="1.1" id="Calque_1" xmlns="http://www.w3.org/2000/svg" xmlns:xlink="http://www.w3.org/1999/xlink" x="0px" y="0px"
	 viewBox="0 0 277 348" style="enable-background:new 0 0 277 348;" xml:space="preserve">
<path d="M227.8,255.5c-1.3-1-2.6-2-3.9-2.9c-15.4-11.4-31.2-12.1-47.5-2.2c-12,7.3-21.2,17.5-30.7,27.7
	c-14,15.1-27.7,30.6-42.7,44.7c-13.3,12.5-29.7,19.7-48.2,20.9c-15.6,1-29.8-2.6-41.1-14.2c-7-7.1-10-15.8-8.2-25.6
	c0.6-3.6,2.6-6.9,4.7-10.2c-4.2,10-3,19.3,3.4,27.7c6.3,8.3,15.3,12.2,25.3,13.7c18.3,2.6,35.1-2.5,49.3-13.7
	c12.2-9.6,23.4-20.7,34.3-31.9c12.9-13.2,24.2-28.1,39.6-38.7c6.1-4.2,12.8-7.9,19.8-10.3C199.7,234.5,216.2,240,227.8,255.5z"/>
<path d="M272.8,58.2c-5.2,13.8-15,24.6-25,35.6c-14.5,16.2-28.2,32.5-42.2,48.7C177.7,173,122.6,244,109,249.4
	c-9,4.7-18.9,6.3-28.6,9.5c-78,22-69.2,29.2-50.4-30.3c6.9-22,11.9-45.1,26-63c27.1-33.7,61.9-60.6,89.9-93.5
	c42.2-44.4,53-82.8,91.7-54C252.7,28.6,266.7,39.8,272.8,58.2z M92.1,244.8c-4.2-8.3-11-15.1-12.7-23.9c7.8,3.8,9.8,15.8,16.1,22.2
	c16.6,2.2-13.2-26.4-7.3-31.1c6.7,5.5,10.8,19.3,16.7,27.3c8-2.8,3.1-10.1,2.1-16c-6.9-20.8-24.7-37.7-47.2-41.4
	c-6.6,0.4-6.1,12-9,17.1c-4.2,12.7-8.2,24.9-12.3,37.7c2.3,6.1,11.7,12.9,16,18.7c8.5,1.3,8.2-2.8,4.9-9.5c-0.4-6.2,4.8,3.1,6.7,6.1
	c0.8,1.2,6.5,0.7,4.6-2.1c-1.7-4.4-5.1-6.7-3.7-11.8c6.6,3,4.8,17.4,14.8,9.4c-2.2-5.3-14-19.6-8.2-21
	C84.5,243.2,82.4,250.1,92.1,244.8z M204.3,77.7c-128.2,141-101.6,117.5-95.4,132.5C234.3,62.4,217.8,94.2,204.3,77.7z M185.9,63.9
	c-33.8,40.4-67.2,80.3-100.8,120.5c3.5,2.8,7,5.5,10.8,8.6c31.6-42.2,67.2-80.7,103.3-119.4C194.4,70.1,190.3,67.1,185.9,63.9z
	 M220.3,92.2c-125.8,144.2-107.9,120.7-104,138.7C246.6,77.8,230.9,107.6,220.3,92.2z M242.5,83.8c4.8-2.8-5-5.8-4.4-10.4
	c3.2,0,5.9,3.1,8.8,5.5c-1.3-5-6.8-7.2-6.5-13c3.8,2.3,6.2,6.7,11.1,8.4c-0.7-5.8-14.8-13.1-9.8-16.5c2,2.1,18.5,18.8,12.8,8.7
	c-4.2-5.3-12.9-10.6-8.6-15.3c4,5,7.7,9.6,11.5,14.5c7.6-7.7-5-11.2-8.8-16.6c-2.2-1.5-5.6-6.7,0.6-3.8c4.1,2.3,6.4,6.4,10.9,8.9
	C254.2,43,242.6,34.3,232.4,27c-23.4-17.5-27.8-5.2-43.3,8.8C210,49.6,227.2,65.6,242.5,83.8z M61,174.6c9.3,1.4,16.3,10.2,22.5,0.5
	c32.5-39.1,64.3-75.9,96.2-115c-2.9-0.7-5.6-6.3-8.2-1.6c-7.7,9.3-15.2,16.6-23.7,25.4C118.5,114.6,88.8,142.5,61,174.6z
	 M185.3,41.6c-2.6,3.3-4.8,6.1-7.4,9.3c20.7,12.2,38.5,26.9,54.6,44.2c2.1-2.4,3.6-4.3,5.2-6.2C222.5,70.4,205.5,54.8,185.3,41.6z"
	/>
</svg>
