<?xml version="1.0" encoding="utf-8"?>
<!-- Generator: Adobe Illustrator 23.1.0, SVG Export Plug-In . SVG Version: 6.00 Build 0)  -->
<svg version="1.1" id="Calque_1" xmlns="http://www.w3.org/2000/svg" xmlns:xlink="http://www.w3.org/1999/xlink" x="0px" y="0px"
	 viewBox="0 0 241.9 46.1" style="enable-background:new 0 0 241.9 46.1;" xml:space="preserve">
<style type="text/css">
	.st0{fill:#FD2D01;}
	.st1{fill:#FFD7D7;}
</style>
<g id="b5a93e15-ef7c-9d7a-680b-cdb17474f15f" transform="matrix(2.2,0,0,2.2,90.86749374866484,130.23299922943116)">
	<path className="st0" d="M-11.9-45.1L-11.9-45.1c-1.5,0-2.7-0.5-3.6-1.5l0,0l0,0c-1-1-1.5-2.2-1.5-3.7l0,0l0,0c0-1.4,0.5-2.7,1.5-3.6
		l0,0l0,0c1-1,2.2-1.5,3.6-1.5l0,0l0,0c1.5,0,2.7,0.5,3.8,1.4l0,0l-1.4,1.5l0,0c-0.7-0.5-1.5-0.8-2.4-0.8l0,0l0,0
		c-0.9,0-1.7,0.3-2.2,0.9l0,0l0,0c-0.6,0.6-0.8,1.3-0.8,2.2l0,0l0,0c0,1,0.3,1.7,0.8,2.3l0,0l0,0c0.6,0.6,1.3,0.8,2.2,0.8l0,0l0,0
		c0.7,0,1.3-0.1,1.7-0.4l0,0v-1.8l-1.4,0v-1.9h3.4v4.8l0,0C-9.2-45.6-10.5-45.1-11.9-45.1L-11.9-45.1z M-4.5-52v0.8l0,0
		C-4-51.7-3.4-52-2.7-52l0,0l0,0c0.2,0,0.4,0,0.6,0l0,0L-2.4-50l0,0c-0.2-0.2-0.5-0.3-0.9-0.3l0,0l0,0c-0.5,0-0.9,0.4-1.2,1l0,0v4.2
		h-1.9v-6.6L-4.5-52z M2.3-45.1L2.3-45.1c-1,0-1.8-0.3-2.5-1l0,0l0,0c-0.7-0.7-1-1.5-1-2.5l0,0l0,0c0-1,0.3-1.8,1-2.5l0,0l0,0
		c0.7-0.7,1.5-1,2.5-1l0,0l0,0c1,0,1.8,0.3,2.5,1l0,0l0,0c0.7,0.7,1,1.5,1,2.5l0,0l0,0c0,1-0.3,1.8-1,2.5l0,0l0,0
		C4.1-45.4,3.3-45.1,2.3-45.1L2.3-45.1z M2.3-46.7L2.3-46.7L2.3-46.7c0.5,0,0.9-0.2,1.3-0.5l0,0l0,0C3.8-47.6,4-48,4-48.5l0,0l0,0
		c0-0.5-0.2-1-0.5-1.3l0,0l0,0c-0.3-0.4-0.8-0.5-1.3-0.5l0,0l0,0c-0.5,0-0.9,0.2-1.3,0.5l0,0l0,0c-0.3,0.3-0.5,0.8-0.5,1.3l0,0l0,0
		c0,0.5,0.2,1,0.5,1.3l0,0l0,0C1.3-46.9,1.7-46.7,2.3-46.7z M11.2-47.6L11.2-47.6V-52h1.9v6.8h-1.9v-0.6l0,0c-0.5,0.4-1,0.6-1.6,0.6
		l0,0l0,0c-0.9,0-1.5-0.3-2-0.8l0,0l0,0c-0.5-0.5-0.7-1.1-0.7-1.8l0,0V-52h1.9v3.8l0,0c0,0.5,0.1,0.8,0.3,1.1l0,0l0,0
		c0.2,0.3,0.6,0.4,1,0.4l0,0l0,0C10.5-46.8,10.9-47,11.2-47.6z M16.6-42.3l-1.9,0v-9.5l1.9-0.2v0.5l0,0c0.5-0.4,1-0.5,1.5-0.5l0,0
		l0,0c1,0,1.9,0.3,2.5,1l0,0l0,0c0.6,0.7,0.9,1.5,0.9,2.4l0,0l0,0c0,0.9-0.3,1.7-0.9,2.4l0,0l0,0c-0.6,0.7-1.4,1-2.5,1l0,0l0,0
		c-0.7,0-1.2-0.2-1.5-0.6l0,0V-42.3z M16.6-49.2L16.6-49.2v1.1l0,0c0.1,0.8,0.6,1.2,1.4,1.4l0,0l0,0c1.1-0.1,1.7-0.7,1.8-1.7l0,0
		l0,0c0-1.3-0.7-1.9-1.8-2l0,0l0,0C17.2-50.3,16.7-49.9,16.6-49.2z M26-45.1L26-45.1c-1,0-1.8-0.3-2.5-1l0,0l0,0
		c-0.7-0.7-1-1.5-1-2.5l0,0l0,0c0-1,0.3-1.8,1-2.5l0,0l0,0c0.7-0.7,1.5-1,2.5-1l0,0l0,0c1,0,1.8,0.3,2.5,1l0,0l0,0
		c0.7,0.7,1,1.5,1,2.5l0,0l0,0c0,1-0.3,1.8-1,2.5l0,0l0,0C27.8-45.4,27-45.1,26-45.1L26-45.1z M26-46.7L26-46.7L26-46.7
		c0.5,0,0.9-0.2,1.3-0.5l0,0l0,0c0.3-0.3,0.5-0.8,0.5-1.3l0,0l0,0c0-0.5-0.2-1-0.5-1.3l0,0l0,0c-0.3-0.4-0.7-0.5-1.3-0.5l0,0l0,0
		c-0.5,0-0.9,0.2-1.3,0.5l0,0l0,0c-0.3,0.3-0.5,0.8-0.5,1.3l0,0l0,0c0,0.5,0.2,1,0.5,1.3l0,0l0,0C25.1-46.9,25.5-46.7,26-46.7z
		 M32.7-49.5L32.7-49.5v4.4h-1.9v-6.6l1.9-0.2v0.6l0,0c0.4-0.4,1-0.6,1.6-0.6l0,0l0,0c0.9,0,1.5,0.3,2,0.8l0,0l0,0
		c0.5-0.5,1.3-0.8,2.3-0.8l0,0l0,0c0.9,0,1.5,0.3,2,0.8l0,0l0,0c0.5,0.5,0.7,1.1,0.7,1.8l0,0v4.2h-1.9v-3.8l0,0
		c0-0.5-0.1-0.8-0.3-1.1l0,0l0,0c-0.2-0.2-0.5-0.4-1-0.4l0,0l0,0c-0.4,0-0.7,0.3-1,0.8l0,0l0,0c0,0.1,0,0.3,0,0.4l0,0v4h-1.9v-3.8
		l0,0c0-0.5-0.1-0.8-0.3-1.1l0,0l0,0c-0.2-0.2-0.5-0.4-1-0.4l0,0l0,0C33.3-50.3,33-50,32.7-49.5z M43.8-50L43-51.1l0,0
		c0.9-0.5,1.9-0.8,3-0.8l0,0l0,0c0.8,0,1.5,0.2,1.9,0.7l0,0l0,0c0.5,0.5,0.7,1.1,0.7,2l0,0v4.1h-1.9v-0.5l0,0
		c-0.6,0.4-1.1,0.5-1.5,0.5l0,0l0,0c-0.9,0-1.6-0.2-2-0.6l0,0l0,0c-0.5-0.4-0.7-0.9-0.7-1.6l0,0l0,0c0-0.6,0.2-1.2,0.7-1.7l0,0l0,0
		c0.4-0.5,1.1-0.8,2.1-0.8l0,0l0,0c0.4,0,1,0.1,1.5,0.4l0,0v-0.2l0,0c0-0.5-0.4-0.8-1.1-0.8l0,0l0,0C44.9-50.4,44.2-50.3,43.8-50
		L43.8-50z M46.8-47.2L46.8-47.2V-48l0,0c-0.2-0.4-0.6-0.5-1.3-0.5l0,0l0,0c-0.8,0.1-1.3,0.4-1.3,1l0,0l0,0c0,0.5,0.5,0.8,1.3,0.9
		l0,0l0,0C46.2-46.6,46.6-46.8,46.8-47.2z M52.3-49.5L52.3-49.5v4.3h-1.9v-6.6l1.9-0.2v0.6l0,0c0.5-0.4,1-0.6,1.6-0.6l0,0l0,0
		c0.9,0,1.5,0.3,2,0.8l0,0l0,0c0.5,0.5,0.7,1.1,0.7,1.8l0,0v4.2h-1.9v-3.8l0,0c0-0.5-0.1-0.8-0.3-1.1l0,0l0,0
		c-0.2-0.2-0.6-0.4-1-0.4l0,0l0,0C53-50.3,52.6-50,52.3-49.5z M60.2-45.1h-1.9V-52h1.9V-45.1z M58.2-53.6L58.2-53.6L58.2-53.6
		c0,0.3,0.1,0.5,0.3,0.7l0,0l0,0c0.2,0.2,0.4,0.3,0.8,0.3l0,0l0,0c0.3,0,0.6-0.1,0.8-0.3l0,0l0,0c0.2-0.2,0.3-0.4,0.3-0.7l0,0l0,0
		c0-0.3-0.1-0.5-0.3-0.7l0,0l0,0c-0.2-0.2-0.4-0.3-0.8-0.3l0,0l0,0c-0.3,0-0.6,0.1-0.7,0.3l0,0l0,0C58.3-54.1,58.2-53.9,58.2-53.6z
		 M62.7-50L62-51.1l0,0c0.9-0.5,1.9-0.8,3-0.8l0,0l0,0c0.8,0,1.5,0.2,1.9,0.7l0,0l0,0c0.5,0.5,0.7,1.1,0.7,2l0,0v4.1h-1.9v-0.5l0,0
		c-0.6,0.4-1.1,0.5-1.5,0.5l0,0l0,0c-0.9,0-1.6-0.2-2.1-0.6l0,0l0,0c-0.5-0.4-0.7-0.9-0.7-1.6l0,0l0,0c0-0.6,0.2-1.2,0.7-1.7l0,0
		l0,0c0.4-0.5,1.1-0.8,2.1-0.8l0,0l0,0c0.4,0,0.9,0.1,1.5,0.4l0,0v-0.2l0,0c0-0.5-0.4-0.8-1.1-0.8l0,0l0,0
		C63.8-50.4,63.2-50.3,62.7-50L62.7-50z M65.7-47.2L65.7-47.2V-48l0,0c-0.2-0.4-0.6-0.5-1.3-0.5l0,0l0,0c-0.8,0.1-1.3,0.4-1.3,1l0,0
		l0,0c0,0.5,0.5,0.8,1.3,0.9l0,0l0,0C65.1-46.6,65.5-46.8,65.7-47.2z"/>
</g>
<g transform="matrix(0.17276311525438642,0,0,0.17276311525438642,35.75002377601375,124.08554457454373)">
	<g>
		<path className="st1" d="M-71-460.7c33.6,0,65.1-12.9,88.8-36.6c23.7-23.7,36.6-55.2,36.6-88.8s-12.9-65.1-36.6-88.8
			c-23.7-23.7-55.2-36.6-88.8-36.6s-65.1,12.9-88.8,36.6c-23.7,23.7-36.6,55.2-36.6,88.8s12.9,65.1,36.6,88.8S-104.6-460.7-71-460.7
			z M-63.8-482c-2.4,0.3-4.8,0.3-7.2,0.3c-3.3,0-6.6-0.3-9.9-0.6c-10.8-16.8-18.9-34.8-23.7-53.7h53.1c1.8,4.5,5.1,8.7,9,11.4
			C-47.6-509.6-54.8-495.5-63.8-482z M-35.3-488c5.7-10.5,10.2-21,13.8-32.1c8.7-1.8,15.6-7.8,18.9-15.9h23.1
			C8.5-514.1-11.6-497-35.3-488z M33.1-586.1c0,9.9-1.5,19.5-3.9,28.8H-3.2c-1.8-3.9-4.8-7.5-8.4-10.2c0.6-6.6,0.9-13.2,0.9-19.8
			c0-9.3-0.6-18.6-1.8-27.6h41.4C31.9-605.9,33.1-596,33.1-586.1z M20.5-636.2h-36.6c-3.9-16.5-9.6-32.1-17.4-47.1
			C-10.7-674.6,8.5-657.5,20.5-636.2z M-31.7-587.3c0,5.1-0.3,10.2-0.6,15.3c-8.4,1.8-15.3,7.2-18.6,14.7h-57.9
			c-1.2-9-2.1-18.3-2.1-27.3c0-5.7,0.3-11.4,0.9-17.1c7.8-1.5,14.1-6.6,18-13.2h58.5C-32.3-605.9-31.7-596.6-31.7-587.3z
			 M-78.8-689.9c2.7-0.3,5.4-0.3,7.8-0.3c3,0,6,0,9,0.3c10.8,16.8,18.9,34.8,23.7,53.7h-52.2c-1.8-5.1-5.1-9.6-9.3-12.9
			C-94.4-663.5-87.5-677-78.8-689.9z M-107.3-683.9c-5.1,9.6-9.6,19.8-13.2,30c-9.3,1.8-16.8,8.7-19.8,17.4h-21.9
			C-150.5-657.8-131-674.9-107.3-683.9z M-175.1-586.1c0-9.9,1.5-19.8,4.2-28.8h32.7c1.8,3.3,4.5,6.3,7.5,8.7
			c-0.6,7.2-1.2,14.4-1.2,21.6c0,9.3,0.6,18.3,1.8,27.3h-40.8C-173.9-566.6-175.1-576.2-175.1-586.1z M-126.5-536.3
			c3.9,16.2,9.6,32.1,17.4,47.1c-22.8-9-41.7-25.8-53.4-47.1H-126.5z"/>
	</g>
</g>
</svg>
