<?xml version="1.0" encoding="utf-8"?>
<!-- Generator: Adobe Illustrator 23.1.0, SVG Export Plug-In . SVG Version: 6.00 Build 0)  -->
<svg version="1.1" id="Calque_1" xmlns="http://www.w3.org/2000/svg" xmlns:xlink="http://www.w3.org/1999/xlink" x="0px" y="0px"
	 viewBox="0 0 319.6 318.9" style="enable-background:new 0 0 319.6 318.9;" xml:space="preserve">
<path d="M26.1,9.6c12.5,12.1,26.5,21.2,41.4,28.9c12.2,6.3,25,11.6,37.2,18.1c6.8,3.6,12.8,8.8,19.2,13.2c0.8,0.5,1.6,1.6,2.4,1.5
	c6.4-0.5,6.4,3.8,6.4,8.2c-0.3,51.5-0.5,103-0.7,154.5c0,2,0,3.9,0,6.1c8.5,0.4,16.6,0.9,24.7,1.1c15.5,0.4,31,0.5,46.5,1
	c3.6,0.1,4.9-1,5-4.7c0.4-11.6,1.7-23.3,1.6-34.9c-0.1-10.8-1.3-21.6-2.2-32.3c-0.2-3-1-6.3,2.7-7.7c3.8-1.4,6.4,1.2,7.5,4.1
	c2,5.4,4.3,11.1,4.2,16.6c-0.4,21.1-1.6,42.3-2.6,63.4c-0.3,5.3-2.2,6.7-7.6,6.9c-25.2,0.6-50.2-0.6-75.2-3.9c-1.5-0.2-3,0-4.9,0
	c-0.1,2.6-0.3,5.1-0.4,7.5c-0.4,17.7-0.8,35.3-1.2,53c-0.2,8.1-4.9,10.8-12.2,7.2c-21.4-10.7-42.9-21.1-64.2-31.9
	c-13.7-7-25.5-16.6-37.3-26.4c-7.9-6.6-9.3-14.6-9.9-22.9c-1.5-20.6-1.8-41.2-2.5-61.8c-0.9-25.5-1.6-50.9-2.6-76.4
	C0.2,74.4-1.6,50.9,3,27.6c1.6-7.9,4-15.7,6.4-23.5c0.5-1.6,2.8-3.8,4.3-3.9C24.5,0,35.3-0.2,46.1,0.4c15.8,1,31.4,3.4,47.2,4
	c20.4,0.8,40.9,1,61.4,0.5c19.5-0.5,38.9-0.5,58.3,2.5c5.6,0.9,6.9,3.2,4.8,8.6c-0.5,1.3-0.6,2.9-0.4,4.3
	c3.2,19.9,1.9,39.8,0.6,59.7c-0.1,1.9-2.6,3.6-4,5.4c-1.8-1.4-4.8-2.5-5.2-4.3c-1.3-5.6-2.3-11.4-2.2-17.1c0.1-13.5,0.7-27,1.2-40.4
	c0.2-4.7-1.6-6.3-6.4-6.3c-23.3,0.2-46.6,0.7-69.9,0.1c-20.4-0.5-40.8-2.1-61.2-3.6C55.5,12.7,40.8,11,26.1,9.6z M12.6,64.7
	c0,9.3,0.2,17.9-0.1,26.5c-0.2,4.1,1.6,6.2,4.9,8.2c32.2,18.6,64.4,37.4,96.5,56.1c1.8,1.1,3.7,2.1,7,3.9c0-7.7,0-14.2,0-20.6
	c0-5.3,1.8-11.9-0.6-15.6c-2.4-3.7-9.1-4.7-14-6.7C78.1,105,50,93,25.2,74.5C21.1,71.5,17.2,68.3,12.6,64.7z M12.4,100.8
	c0.5,9.2,1.1,17.2,1.2,25.3c0.1,3.6,1.2,5.5,4.4,7.3c32.3,18.1,64.5,36.4,96.7,54.7c1.2,0.7,2.5,1.2,4.1,2c0.4-7,0.9-13.5,1-20
	c0-1.7-1.4-4.1-2.8-4.8c-34.2-16.9-65.9-38-97.3-59.6C17.7,104.3,15.7,103,12.4,100.8z M15.1,225.3c0.1,1.8,0.6,4.3,0.5,6.8
	c-0.5,10.9,0.9,20.7,12.7,25.6c1.5,0.6,2.8,1.9,4.2,2.6c24.4,12.8,48.9,25.6,73.3,38.4c4.9,2.6,9.7,5.5,15.7,8.9
	c-0.6-7-1.3-12.5-1.4-18.1c-0.1-3.4-1.3-5.3-4.3-7c-17.2-9.5-34.2-19.2-51.2-28.9C48.1,244.2,31.7,234.8,15.1,225.3z M15.6,13.2
	c-0.8,8.8-1.6,16.9-2.2,25c-0.1,0.9,1.2,2.2,2.2,2.9c27.4,18.7,56.2,34.8,87.1,47c6.2,2.5,12.5,4.9,19.1,7.4c0.2-3,0.3-5.3,0.4-7.6
	c0.6-9.2,0.6-9.2-7.8-12.3c-1.4-0.5-2.9-0.9-4.2-1.6c-13-7.7-26.3-15-39-23.2C52.8,38.8,32.6,29.3,15.6,13.2z M14,151.5
	c0,7.8-0.2,14.7,0.2,21.6c0.1,1.8,1.7,4.3,3.3,5.2c6.7,3.7,13.6,6.9,20.4,10.4c22.1,11.2,44.1,22.3,66.1,33.6
	c4.6,2.4,8.9,5.6,14.3,9c0-5.7-0.5-10.5,0.1-15.2c0.5-4-0.5-5.9-4.2-7.6c-29-13-56.8-28.4-83.4-45.6C25.4,159.4,20.1,155.7,14,151.5
	z M119,275.3c0-2-0.3-4.3,0.1-6.5c0.8-5.5-1.3-9.1-6-11.9c-11.3-6.7-22.3-13.9-33.8-20.2c-20.9-11.3-42-22.1-63.1-33
	c-0.5-0.3-1.2-0.2-1.5-0.3c-2.9,11.4,2.4,17.5,12,22.7C57.1,242.8,89.1,256.8,119,275.3z M118.1,253.1c0-4-0.3-6.8,0.1-9.6
	c0.7-4.8-1.7-6.9-5.6-9C85.3,220,58.2,205.2,31,190.5c-5.5-3-10.9-6.1-16.5-9.3c-2.2,17.3-2.2,17.3,12.2,24.6c1,0.5,2.1,1,3.1,1.5
	C59.4,221.5,91.3,231.1,118.1,253.1z M121.6,114.7c0.9-9.5,0.9-9.4-7-12.5c-2-0.8-4.1-1.5-5.9-2.6c-25-13.9-49.9-27.8-74.8-41.9
	c-7-4-13.5-8.8-20.4-13.4c-2,14.4-1.7,15,9.1,22.7C52.7,88.4,87.8,99.4,121.6,114.7z M14.2,134.7c-0.1,2.2,0,3.6-0.3,5
	c-1.1,6.1,1.6,9.5,7,12.3c23.3,12,46.5,24.3,69.7,36.5c9.2,4.8,18.5,9.6,27.7,14.4c0.5-0.4,0.9-0.9,1.4-1.3c-1.3-1.6-2.3-3.8-4-4.8
	c-27.8-17-55.6-33.8-83.5-50.6C26.4,142.6,20.6,138.8,14.2,134.7z"/>
<path d="M241.2,144.9c-20.3,1.6-39.5,3.3-58.8,4.3c-5.1,0.3-10.3-1.5-15.4-2.8c-1.7-0.4-3.8-1.9-1.6-4.5c0.4-0.5,0.2-1.6,0-2.3
	c-3.2-12.9-1-25.8,0.6-38.7c0.2-1.4,3.1-3.4,4.9-3.5c20.4-0.9,40.9-1.5,61.4-2.2c1.6-0.1,3.3,0,5.6,0c-0.1-2.2-0.3-4.2-0.3-6.3
	c0-5.3-0.2-10.7,0.3-15.9c0.6-7,5.2-9.4,11.6-6.8c20.8,8.4,40.3,19.2,57.9,32.9c5,3.9,8.1,10.2,11.7,15.7c0.8,1.2,0.6,3.8-0.2,5
	c-11.5,17.5-24.2,33.9-42,45.6c-7.5,4.9-15.5,8.2-24.5,9.2c-1.1,0.1-2.1,0.8-3.2,1.1c-2.4,0.5-5.9,2-7.1,0.9
	c-1.7-1.4-2.3-4.8-2.2-7.3C240,161.1,240.7,153,241.2,144.9z M309.1,115c-19.9-13.8-39.4-27.3-58.9-40.8c-0.5,0.4-1,0.8-1.5,1.2
	c0,5.4-0.1,10.8,0.1,16.3c0,1.1,0.9,2.5,1.7,3.3c14.9,12.8,29.9,25.5,45,38.3C299.8,127.5,304.1,121.8,309.1,115z M278.1,151.6
	c4.5-4.8,9.6-10.2,14.5-15.3c-18.1-8.9-28.9-25.8-44.5-37.5c-0.1,0.9-0.2,1.6-0.2,2.2c0.4,8.1-0.7,8.7-8.2,7
	c-4.6-1.1-9.5-1.2-14.2-1.8c-0.1,0.4-0.1,0.8-0.2,1.3C242.5,121.9,259.8,136.4,278.1,151.6z M217.6,135.1c-3.7-3-6.4-5.2-9-7.5
	c-7.5-6.5-14.7-13.4-22.6-19.5c-2.7-2-7-2.6-10.5-2.3c-1,0.1-2.2,5.2-2.4,8.1c-0.3,6.5,1.7,11.9,8,15.1c2.9,1.5,5.3,3.9,8.1,5.7
	c1.6,1,3.6,2.1,5.4,2C201.8,136.5,209,135.8,217.6,135.1z M191,105.9c-0.1,0.6-0.2,1.2-0.3,1.8c11.5,8.4,23,16.9,34.6,25.3
	c1,0.7,2.4,1.1,3.7,1.1c5.7,0.1,11.4,0,17.2,0c-9.2-9-18.1-17.7-27.1-26.3c-1-0.9-2.6-1.8-3.9-1.8
	C207.1,105.8,199.1,105.9,191,105.9z M251.5,165.6c7.1-3.4,13.8-6.5,21.1-10c-8.2-6.8-15.6-12.9-23-19
	C250.2,146.2,250.8,155.2,251.5,165.6z M184,137c-3.6-2.9-6-4.9-9.2-7.6c0.2,3.4,0.3,5.5,0.4,8C177.8,137.3,180.1,137.2,184,137z"/>
</svg>
