<?xml version="1.0" encoding="utf-8"?>
<!-- Generator: Adobe Illustrator 23.1.0, SVG Export Plug-In . SVG Version: 6.00 Build 0)  -->
<svg version="1.1" id="Calque_1" xmlns="http://www.w3.org/2000/svg" xmlns:xlink="http://www.w3.org/1999/xlink" x="0px" y="0px"
	 viewBox="0 0 241.2 44.8" style="enable-background:new 0 0 241.2 44.8;" xml:space="preserve">
<style type="text/css">
	.st0{fill:#EF3924;}
	.st1{fill:#FCD7D7;}
</style>
<g id="b5a93e15-ef7c-9d7a-680b-cdb17474f15f" transform="matrix(2.2,0,0,2.2,90.86749374866484,130.23299922943116)">
	<path className="st0" d="M-11.5-45.3L-11.5-45.3c-1.5,0-2.7-0.5-3.6-1.5l0,0l0,0c-1-1-1.5-2.2-1.5-3.7l0,0l0,0c0-1.4,0.5-2.7,1.5-3.6
		l0,0l0,0c1-1,2.2-1.5,3.6-1.5l0,0l0,0c1.5,0,2.7,0.5,3.8,1.4l0,0l-1.4,1.5l0,0c-0.7-0.5-1.5-0.8-2.4-0.8l0,0l0,0
		c-0.9,0-1.7,0.3-2.2,0.9l0,0l0,0c-0.6,0.6-0.8,1.3-0.8,2.2l0,0l0,0c0,1,0.3,1.7,0.8,2.3l0,0l0,0c0.6,0.6,1.3,0.8,2.2,0.8l0,0l0,0
		c0.7,0,1.3-0.1,1.7-0.4l0,0v-1.8h-1.4v-1.9h3.4v4.8l0,0C-8.8-45.8-10.1-45.3-11.5-45.3L-11.5-45.3z M-4.1-52.2v0.8l0,0
		c0.5-0.5,1.1-0.8,1.8-0.8l0,0l0,0c0.2,0,0.4,0,0.6,0l0,0l-0.3,2l0,0c-0.2-0.2-0.5-0.3-0.9-0.3l0,0l0,0c-0.5,0-0.9,0.4-1.2,1l0,0
		v4.2H-6v-6.6L-4.1-52.2z M2.7-45.3L2.7-45.3c-1,0-1.8-0.3-2.5-1l0,0l0,0c-0.7-0.7-1-1.5-1-2.5l0,0l0,0c0-1,0.3-1.8,1-2.5l0,0l0,0
		c0.7-0.7,1.5-1,2.5-1l0,0l0,0c1,0,1.8,0.3,2.5,1l0,0l0,0c0.7,0.7,1,1.5,1,2.5l0,0l0,0c0,1-0.3,1.8-1,2.5l0,0l0,0
		C4.5-45.6,3.7-45.3,2.7-45.3L2.7-45.3z M2.7-46.9L2.7-46.9L2.7-46.9c0.5,0,0.9-0.2,1.3-0.5l0,0l0,0c0.2-0.4,0.4-0.8,0.4-1.3l0,0
		l0,0c0-0.5-0.2-1-0.5-1.3l0,0l0,0c-0.3-0.4-0.8-0.5-1.3-0.5l0,0l0,0c-0.5,0-0.9,0.2-1.3,0.5l0,0l0,0c-0.3,0.3-0.5,0.8-0.5,1.3l0,0
		l0,0c0,0.5,0.2,1,0.5,1.3l0,0l0,0C1.7-47.1,2.1-46.9,2.7-46.9z M11.6-47.8L11.6-47.8v-4.4h1.9v6.8h-1.9V-46l0,0
		c-0.5,0.4-1,0.6-1.6,0.6l0,0l0,0c-0.9,0-1.5-0.3-2-0.8l0,0l0,0c-0.5-0.5-0.7-1.1-0.7-1.8l0,0v-4.2h1.9v3.8l0,0
		c0,0.5,0.1,0.8,0.3,1.1l0,0l0,0c0.2,0.3,0.6,0.4,1,0.4l0,0l0,0C10.9-47,11.3-47.2,11.6-47.8z M17-42.5h-1.9V-52l1.9-0.2v0.5l0,0
		c0.5-0.4,1-0.5,1.5-0.5l0,0l0,0c1,0,1.9,0.3,2.5,1l0,0l0,0c0.6,0.7,0.9,1.5,0.9,2.4l0,0l0,0c0,0.9-0.3,1.7-0.9,2.4l0,0l0,0
		c-0.6,0.7-1.4,1-2.5,1l0,0l0,0c-0.7,0-1.2-0.2-1.5-0.6l0,0V-42.5z M17-49.4L17-49.4v1.1l0,0c0.1,0.8,0.6,1.2,1.4,1.4l0,0l0,0
		c1.1-0.1,1.7-0.7,1.8-1.7l0,0l0,0c0-1.3-0.7-1.9-1.8-2l0,0l0,0C17.6-50.5,17.1-50.1,17-49.4z M26.4-45.3L26.4-45.3
		c-1,0-1.8-0.3-2.5-1l0,0l0,0c-0.7-0.7-1-1.5-1-2.5l0,0l0,0c0-1,0.3-1.8,1-2.5l0,0l0,0c0.7-0.7,1.5-1,2.5-1l0,0l0,0
		c1,0,1.8,0.3,2.5,1l0,0l0,0c0.7,0.7,1,1.5,1,2.5l0,0l0,0c0,1-0.3,1.8-1,2.5l0,0l0,0C28.2-45.6,27.4-45.3,26.4-45.3L26.4-45.3z
		 M26.4-46.9L26.4-46.9L26.4-46.9c0.5,0,0.9-0.2,1.3-0.5l0,0l0,0c0.3-0.3,0.5-0.8,0.5-1.3l0,0l0,0c0-0.5-0.2-1-0.5-1.3l0,0l0,0
		c-0.3-0.4-0.7-0.5-1.3-0.5l0,0l0,0c-0.5,0-0.9,0.2-1.3,0.5l0,0l0,0c-0.3,0.3-0.5,0.8-0.5,1.3l0,0l0,0c0,0.5,0.2,1,0.5,1.3l0,0l0,0
		C25.5-47.1,25.9-46.9,26.4-46.9z M33.1-49.7L33.1-49.7v4.4h-1.9v-6.6l1.9-0.2v0.6l0,0c0.4-0.4,1-0.6,1.6-0.6l0,0l0,0
		c0.9,0,1.5,0.3,2,0.8l0,0l0,0c0.5-0.5,1.3-0.8,2.3-0.8l0,0l0,0c0.9,0,1.5,0.3,2,0.8l0,0l0,0c0.5,0.5,0.7,1.1,0.7,1.8l0,0v4.2h-1.9
		v-3.8l0,0c0-0.5-0.1-0.8-0.3-1.1l0,0l0,0c-0.2-0.2-0.5-0.4-1-0.4l0,0l0,0c-0.4,0-0.7,0.3-1,0.8l0,0l0,0c0,0.1,0,0.3,0,0.4l0,0v4
		h-1.9v-3.8l0,0c0-0.5-0.1-0.8-0.3-1.1l0,0l0,0c-0.2-0.2-0.5-0.4-1-0.4l0,0l0,0C33.7-50.5,33.4-50.2,33.1-49.7z M44.2-50.2l-0.8-1.1
		l0,0c0.9-0.5,1.9-0.8,3-0.8l0,0l0,0c0.8,0,1.5,0.2,1.9,0.7l0,0l0,0c0.5,0.5,0.7,1.1,0.7,2l0,0v4.1h-1.9v-0.5l0,0
		c-0.6,0.4-1.1,0.5-1.5,0.5l0,0l0,0c-0.9,0-1.6-0.2-2-0.6l0,0l0,0c-0.5-0.4-0.7-0.9-0.7-1.6l0,0l0,0c0-0.6,0.2-1.2,0.7-1.7l0,0l0,0
		c0.4-0.5,1.1-0.8,2.1-0.8l0,0l0,0c0.4,0,1,0.1,1.5,0.4l0,0v-0.2l0,0c0-0.5-0.4-0.8-1.1-0.8l0,0l0,0C45.3-50.6,44.6-50.5,44.2-50.2
		L44.2-50.2z M47.2-47.4L47.2-47.4v-0.8l0,0c-0.2-0.4-0.6-0.5-1.3-0.5l0,0l0,0c-0.8,0.1-1.3,0.4-1.3,1l0,0l0,0
		c0,0.5,0.5,0.8,1.3,0.9l0,0l0,0C46.6-46.8,47-47,47.2-47.4z M52.7-49.7L52.7-49.7v4.3h-1.9V-52l1.9-0.2v0.6l0,0
		c0.5-0.4,1-0.6,1.6-0.6l0,0l0,0c0.9,0,1.5,0.3,2,0.8l0,0l0,0c0.5,0.5,0.7,1.1,0.7,1.8l0,0v4.2h-1.9v-3.8l0,0c0-0.5-0.1-0.8-0.3-1.1
		l0,0l0,0c-0.2-0.2-0.6-0.4-1-0.4l0,0l0,0C53.4-50.5,53-50.2,52.7-49.7z M60.6-45.3h-1.9v-6.9h1.9V-45.3z M58.6-53.8L58.6-53.8
		L58.6-53.8c0,0.3,0.1,0.5,0.3,0.7l0,0l0,0c0.2,0.2,0.4,0.3,0.8,0.3l0,0l0,0c0.3,0,0.6-0.1,0.8-0.3l0,0l0,0c0.2-0.2,0.3-0.4,0.3-0.7
		l0,0l0,0c0-0.3-0.1-0.5-0.3-0.7l0,0l0,0c-0.2-0.2-0.4-0.3-0.8-0.3l0,0l0,0c-0.3,0-0.6,0.1-0.7,0.3l0,0l0,0
		C58.7-54.3,58.6-54.1,58.6-53.8z M63.1-50.2l-0.7-1.1l0,0c0.9-0.5,1.9-0.8,3-0.8l0,0l0,0c0.8,0,1.5,0.2,1.9,0.7l0,0l0,0
		c0.5,0.5,0.7,1.1,0.7,2l0,0v4.1h-1.9v-0.5l0,0c-0.6,0.4-1.1,0.5-1.5,0.5l0,0l0,0c-0.9,0-1.6-0.2-2.1-0.6l0,0l0,0
		c-0.5-0.4-0.7-0.9-0.7-1.6l0,0l0,0c0-0.6,0.2-1.2,0.7-1.7l0,0l0,0c0.4-0.5,1.1-0.8,2.1-0.8l0,0l0,0c0.4,0,0.9,0.1,1.5,0.4l0,0v-0.2
		l0,0c0-0.5-0.4-0.8-1.1-0.8l0,0l0,0C64.2-50.6,63.6-50.5,63.1-50.2L63.1-50.2z M66.1-47.4L66.1-47.4v-0.8l0,0
		c-0.2-0.4-0.6-0.5-1.3-0.5l0,0l0,0c-0.8,0.1-1.3,0.4-1.3,1l0,0l0,0c0,0.5,0.5,0.8,1.3,0.9l0,0l0,0C65.5-46.8,65.9-47,66.1-47.4z"/>
</g>
<g transform="matrix(0.17276311525438642,0,0,0.17276311525438642,35.75002377601375,124.08554457454373)">
	<g>
		<path className="st1" d="M-77.2-463.8c33.6,0,65.1-12.9,88.8-36.6c23.7-23.7,36.6-55.2,36.6-88.8c0-33.6-12.9-65.1-36.6-88.8
			c-23.7-23.7-55.2-36.6-88.8-36.6s-65.1,12.9-88.8,36.6s-36.6,55.2-36.6,88.8c0,33.6,12.9,65.1,36.6,88.8S-110.8-463.8-77.2-463.8z
			 M-70-485.1c-2.4,0.3-4.8,0.3-7.2,0.3c-3.3,0-6.6-0.3-9.9-0.6c-10.8-16.8-18.9-34.8-23.7-53.7h53.1c1.8,4.5,5.1,8.7,9,11.4
			C-53.8-512.7-61-498.6-70-485.1z M-41.5-491.1c5.7-10.5,10.2-21,13.8-32.1c8.7-1.8,15.6-7.8,18.9-15.9h23.1
			C2.3-517.2-17.8-500.1-41.5-491.1z M26.9-589.2c0,9.9-1.5,19.5-3.9,28.8H-9.4c-1.8-3.9-4.8-7.5-8.4-10.2
			c0.6-6.6,0.9-13.2,0.9-19.8c0-9.3-0.6-18.6-1.8-27.6h41.4C25.7-609,26.9-599.1,26.9-589.2z M14.3-639.3h-36.6
			c-3.9-16.5-9.6-32.1-17.4-47.1C-16.9-677.7,2.3-660.6,14.3-639.3z M-37.9-590.4c0,5.1-0.3,10.2-0.6,15.3
			c-8.4,1.8-15.3,7.2-18.6,14.7H-115c-1.2-9-2.1-18.3-2.1-27.3c0-5.7,0.3-11.4,0.9-17.1c7.8-1.5,14.1-6.6,18-13.2h58.5
			C-38.5-609-37.9-599.7-37.9-590.4z M-85-693c2.7-0.3,5.4-0.3,7.8-0.3c3,0,6,0,9,0.3c10.8,16.8,18.9,34.8,23.7,53.7h-52.2
			c-1.8-5.1-5.1-9.6-9.3-12.9C-100.6-666.6-93.7-680.1-85-693z M-113.5-687c-5.1,9.6-9.6,19.8-13.2,30c-9.3,1.8-16.8,8.7-19.8,17.4
			h-21.9C-156.7-660.9-137.2-678-113.5-687z M-181.3-589.2c0-9.9,1.5-19.8,4.2-28.8h32.7c1.8,3.3,4.5,6.3,7.5,8.7
			c-0.6,7.2-1.2,14.4-1.2,21.6c0,9.3,0.6,18.3,1.8,27.3h-40.8C-180.1-569.7-181.3-579.3-181.3-589.2z M-132.7-539.4
			c3.9,16.2,9.6,32.1,17.4,47.1c-22.8-9-41.7-25.8-53.4-47.1H-132.7z"/>
	</g>
</g>
</svg>
