<?xml version="1.0" encoding="utf-8"?>
<!-- Generator: Adobe Illustrator 23.1.0, SVG Export Plug-In . SVG Version: 6.00 Build 0)  -->
<svg version="1.1" id="Calque_1" xmlns="http://www.w3.org/2000/svg" xmlns:xlink="http://www.w3.org/1999/xlink" x="0px" y="0px"
	 viewBox="0 0 98.6 78.6" style="enable-background:new 0 0 98.6 78.6;" xml:space="preserve">
<g>
	<path d="M92.2,68.6H6.3v-48h85.9V68.6z M9.3,65.6h79.9v-42H9.3V65.6z M21.3,62.2L21.3,62.2L21,62.1l0.3-0.3v-34l-0.7-0.5h57.2
		l-0.5,0.4v34l0.4,0.4h-0.4V62L77.2,62h-3.6c-16.5,0-32,0-48.5,0.1L21.3,62.2L21.3,62.2z M42.9,47.6c-5.1,4.3-9.4,7.9-13.7,11.4
		C42.8,59,55.9,59,69.5,59c-1-0.8-1.9-1.6-2.8-2.3c-3.7-3.1-7.3-6.1-10.9-9.1c-1.8,2-3.8,3.1-5.9,3.2C47.5,50.9,45.2,49.8,42.9,47.6
		z M24.3,33.4v22.4c4.9-4.1,9.5-7.8,14.3-11.8c-2.6-1.9-5-3.8-7.5-5.6C28.8,36.8,26.6,35.1,24.3,33.4z M60.1,44
		c2,1.6,3.9,3.3,5.9,4.9c2.7,2.2,5.4,4.5,8.3,6.8V33.3c-2.3,1.8-4.6,3.5-6.8,5.1C65,40.3,62.6,42.1,60.1,44z M48.2,47.5
		c0.5,0.2,1,0.2,1.5,0.2c1-0.1,2-0.5,3-1.4c-0.3,0.2-0.5,0.4-0.8,0.6C51,47.6,49.5,47.8,48.2,47.5z M29.6,30.3
		c1.7,1.3,3.4,2.6,5,3.8c4.8,3.6,9.3,7,13.8,10.4c0.3,0.2,1.4,0.2,1.7,0C55.8,40.3,61.6,36,69,30.3H29.6z"/>
	<path d="M3.5,20H1.4l0.6-2c0.5-1.4,0.9-2.8,1.3-4.1C4.6,10.2,5.7,6.7,7,3.3c0.6-1.7,3.3-3.3,5-3.3C36.7,0,61.7,0,86.4,0.1
		c1.9,0,4.6,1.8,5.3,3.5c1.1,2.8,2.1,5.6,3,8.6c0.6,1.8,1.2,3.7,1.9,5.6l0.7,2l-2.1,0C64.6,20,34.9,20,3.5,20z M49.2,3
		C36.8,3,24.3,3,12,3.1c-0.7,0-2,0.9-2.2,1.3c-1.3,3.3-2.4,6.8-3.5,10.4C6,15.5,5.8,16.2,5.6,17c29.9,0,58.3,0,87.5-0.1
		c-0.4-1.3-0.8-2.5-1.2-3.7c-1-3-1.9-5.8-3-8.4c-0.3-0.6-1.8-1.7-2.5-1.7C74.1,3,61.6,3,49.2,3z"/>
	<path d="M98.6,78.6H0v-9.4h98.6V78.6z M3,75.6h92.6v-3.4H3V75.6z"/>
</g>
</svg>
