<?xml version="1.0" encoding="utf-8"?>
<!-- Generator: Adobe Illustrator 23.1.0, SVG Export Plug-In . SVG Version: 6.00 Build 0)  -->
<svg version="1.1" id="Calque_1" xmlns="http://www.w3.org/2000/svg" xmlns:xlink="http://www.w3.org/1999/xlink" x="0px" y="0px"
	 viewBox="0 0 135.4 169.4" style="enable-background:new 0 0 135.4 169.4;" xml:space="preserve">
<path d="M134.2,83.9c-0.5,9.2-0.6,18.5-1.7,27.7c-1.4,11.7-9.5,19.7-20.9,22c-5.4,1.1-6.3,2.1-6.5,7.7c-0.6,13.2-7.9,21.9-20.6,24.4
	c-15.9,3.2-31.9,3-47.9,0.7c-3.5-0.5-6.9-1-10.3-1.6c-10.5-2-15.2-6.9-16.1-17.9c-1.1-12.8-1.8-25.6-2.6-38.4
	C6.4,91.5,5.9,74.5,2.8,57.8C2.2,54.5,2,51,2.1,47.6c0.2-7.8,3.8-11.4,11.5-11.5c2.3-0.1,4.7,0.2,7,0.3c4,0.2,5.2-1.3,4.7-5.3
	c-0.4-3.5-0.8-7.1-0.8-10.6c0-7.7,4-13.2,11.3-14.2c14.2-1.9,28.4-4.9,42.9-3.9C84.9,2.7,91,2.9,97.2,2.7
	c14.7-0.4,26.2,8.7,30.2,23.2c3.7,13.6,5.5,27.4,6,41.4c0.2,5.5,0,11,0,16.6C133.7,83.9,133.9,83.9,134.2,83.9z M73.4,38.9
	c0,0.1,0,0.2,0,0.3c-1.8,0-3.7-0.1-5.5,0c-16.7,1.1-33.4,2.3-50,3.4c-6.3,0.4-8.4,2.6-7.8,9c0.8,8.1,1.8,16.2,2.5,24.3
	c1.2,14.5,2.3,29,3.4,43.4c0.7,8.6,1.3,17.3,2.1,25.9c0.5,5.8,3.5,9.8,9.2,11.3c2.6,0.7,5.2,1.5,7.8,1.7c6.3,0.5,12.7,0.3,18.9,1.3
	c10.5,1.7,20.5,0.1,30.6-2.3c4.7-1.1,8.5-3.8,10.2-8.5c1.4-3.9,2.5-8.1,3-12.3c0.8-7.1,1-14.2,1.5-21.4c0.1-1.6,0.9-3.2,0.9-4.7
	c-0.7-13.5-1.5-27-2.2-40.5c-0.4-7.3-1.3-14.5-4.5-21.2c-2.5-5.1-6.4-8.4-12-9.3C78.8,39.2,76.1,39.2,73.4,38.9z M106.2,116.9
	c0.2,0.1,0.5,0.2,0.7,0.3c1.2-1.6,2.4-3.2,3.5-4.9c3.6-5.9,6.7-12.1,10.6-17.8c4.3-6.2,5.8-12.8,4.3-20.2c-0.2-1.1-1-2.6-1.9-3.1
	c-1.6-0.7-2.4,0.8-3.2,2.1c-2,3.5-4.3,6.8-6.1,10.4c-2.5,4.9-5.2,9.7-6.8,14.9C105.4,104.5,104.9,110.7,106.2,116.9z M107.6,79.6
	c1.2-1.3,2.5-2.3,3.3-3.6c3.3-5.2,6.6-10.4,9.7-15.7c1.3-2.3,2.7-4.8,3.2-7.4c0.8-4.1,0.4-8.2-2.9-11.6c-0.8,0.9-1.8,1.6-2.3,2.5
	c-5.1,9.2-10.4,18.3-12.5,28.9C105.6,75.2,105.7,77.3,107.6,79.6z M61.3,34c3.1,0,5.5-0.7,6.6-3.3c2.1-5.1,4-10.2,5.7-15.4
	c0.8-2.6-0.5-4.4-3.1-5.1c-2.7-0.7-5.9,0.7-7,3.4c-2.1,5.5-4.1,11.1-6.1,16.6c-0.6,1.7,0.1,2.8,1.6,3.3C59.9,33.9,60.9,33.9,61.3,34
	z M105.2,51.1c1.3-1.3,2.8-2.3,3.6-3.7c2.7-4.9,5.1-10.1,7.7-15c1.7-3.1,1.3-6.3,0.3-9.3c-0.4-1.1-1.7-2.5-2.6-2.5
	c-1-0.1-2.2,1.2-3.1,2c-0.4,0.4-0.5,1.2-0.8,1.8c-2.3,6.1-4.3,12.3-6.8,18.2C102.1,45.9,103,48.3,105.2,51.1z M95,38.8
	c1.3-1.5,2.9-2.8,3.6-4.5c2.3-5.7,4.3-11.5,6.3-17.4c0.6-1.8,0.4-3.6-1.3-4.7c-1.6-1-3.9,0.1-4.9,2.3c-2.1,4.4-3.8,9-6.1,13.3
	C90.3,32.2,91.1,35.5,95,38.8z M86.4,11.5c-0.3,0.2-1.1,0.6-1.7,1.2c-4.2,4.3-6.6,9.5-7.9,15.3c-0.5,2.1,0,3.8,1.8,4.4
	c1.6,0.6,3.1-0.4,4-2.2c2.3-4.9,4.9-9.6,7.3-14.5C90.9,13.3,89.7,11.5,86.4,11.5z M53,14.2c-2-0.2-3.4,0.6-4.1,2.7
	c-1.4,4.3-3,8.6-4.5,12.9c-1.2,3.5-1,3.7,2.3,5.6C50.7,31.3,54.6,18.2,53,14.2z M115.1,122.1c0.4,0.1,0.5,0.1,0.6,0.1
	c5.9-1.2,10.6-9.5,8.5-15.3c-0.2-0.5-1.7-1.2-2.2-0.9c-1,0.5-2,1.5-2.6,2.5c-1.3,2-2.4,4-3.5,6.1C114.6,117,113.9,119.5,115.1,122.1
	z M36,32.4c1.7-4.4,3.2-8.4,4.6-12.3c0.3-0.8,0.5-1.7,0.3-2.5c-0.3-1.2-0.9-2.8-1.7-3.1c-1.1-0.4-2.8,0-3.9,0.6
	c-1.7,0.9-3.5,7.2-2.8,9C33.5,26.8,34.7,29.3,36,32.4z"/>
<path d="M43.9,139.9c-7.4,0.3-8.7-1.1-7.7-8.7c0.5-3.6,1-7.2,1.8-10.8c1.6-7.9,6.4-12.4,14.3-13.3c3.3-0.4,6.6-0.7,9.9-0.7
	c5,0,8.8,2.4,10.4,7.2c2.1,6.7,3.8,13.5,5.3,20.3c0.9,4.2-2.2,7.2-5.9,6.1c-7.4-2.1-14.8-1.3-22.3-0.6
	C47.7,139.5,45.8,139.7,43.9,139.9z"/>
<path d="M57.5,67.6c7.1,0,11.6,3.6,12.9,10.5c1.5,7.6-1.1,12.8-7.8,15.6c-5.2,2.1-10.4,2.6-15.8,1.1c-7.7-2.1-11.1-12.7-6.1-19.2
	C44.5,70.8,51,67.7,57.5,67.6z"/>
</svg>
