<?xml version="1.0" encoding="utf-8"?>
<!-- Generator: Adobe Illustrator 23.1.0, SVG Export Plug-In . SVG Version: 6.00 Build 0)  -->
<svg version="1.1" id="Calque_1" xmlns="http://www.w3.org/2000/svg" xmlns:xlink="http://www.w3.org/1999/xlink" x="0px" y="0px"
	 viewBox="0 0 550.5 295" style="enable-background:new 0 0 550.5 295;" xml:space="preserve">
<path d="M403.4,91.3c16,0,31.9,0,48.3,0c-0.6-6-1.4-12-1.6-18.1c-0.2-5.3-0.5-10.8,0.7-15.8c2.1-8.8,10.7-12,18.5-7.4
	c3.2,1.9,6.2,4.5,8.7,7.4c14.9,17.3,29.6,34.8,44.4,52.1c4.8,5.6,9.7,11,14.5,16.5c8.3,9.5,9.5,16,3.1,26.7
	c-6.3,10.6-13.2,20.9-20.6,30.7c-15.3,20.3-31.2,40.3-46.8,60.4c-2.9,3.7-6.3,5.3-10.9,4s-7.5-5.3-7.9-10.5
	c-0.8-11.8-1.6-23.6-2.4-35.4c-0.1-1-0.2-1.9-0.4-3.4c-16.1,1.5-31.9,3-48.4,4.6c0,4.6,0.1,9.2,0,13.9c-0.2,14-1.5,27.9-6,41.4
	c-5.8,17.5-18.2,26.9-36.1,28.3c-17.7,1.5-35.5,2.4-53.3,2.5c-74.8,0.6-149.6,0.8-224.4,1c-9,0-18.1-0.4-26.8-2.1
	c-31.9-6-47.5-23.1-49-55.5c-1.3-26.4-0.9-52.9-0.7-79.4c0.1-23.8,1-47.6,1.4-71.5C7.9,68.3,8,54.8,13.1,42.3
	c3.2-7.9,7.8-15.4,13.1-22.1c5.6-7.2,14.1-10,23.7-10.3c9.8-0.4,19.5-2.8,29.3-2.8c39,0,78,0.4,116.9,0.9
	c31.2,0.4,62.3,1.3,93.5,1.6c11.5,0.1,23-0.9,34.5-1c9.1-0.1,18.4-0.5,27.4,0.9c28.3,4.4,44.7,21,49,49.5
	C402,69.4,402.4,79.9,403.4,91.3z M37.2,27c7.2,6.9,14.3,13.1,20.8,19.9c20.3,21,40.1,42.3,60.5,63.1c16.1,16.4,33.3,31.6,52.5,44.6
	c20.2,13.6,40.8,15.1,61.3,1.9c12.1-7.8,24-16.3,34.6-26.1c25.2-23.3,49.5-47.5,74.1-71.5c8.3-8.1,16.3-16.4,24.7-24.8
	c-7-5-14.6-7-22.4-7.1c-12.6-0.1-25.3,1-38,0.8c-61.6-1-123.3-2-184.9-3.4c-23.3-0.5-46.6-2.2-69.9-3.3C45,20.9,40.6,23.3,37.2,27z
	 M262.5,163.2c-10.3,5.7-20.6,12.1-31.6,17.3c-13.4,6.3-27.7,8.2-42.4,4.6c-13.7-3.3-25.7-10.1-36.7-18.5c-2.5-1.9-4-1.8-6.4,0.2
	c-8.3,7.2-16.8,14.2-25.4,21.1c-26.4,21.4-52.9,42.7-79.3,64c-2.3,1.8-4.8,3.4-7.3,5.2c5.7,6.5,12.5,10.4,20.3,11.8
	c9.3,1.6,18.8,2.9,28.2,2.9c87.8,0.1,175.6,0,263.4-0.1c3.5,0,7.1,0,10.5-0.6c8.1-1.5,16-3.7,19.5-12.6
	C337.5,226.5,299.8,194.7,262.5,163.2z M472.2,211.6c1.8-1.9,2.8-2.9,3.7-4c9.2-11.2,18.7-22.2,27.5-33.7c7.1-9.2,13.3-19.1,20-28.6
	c2.2-3.1,2-5.4-0.8-8.2c-4.2-4.2-8.1-8.8-11.9-13.4c-13.1-15.7-26.2-31.5-39.3-47.2c-1.2-1.4-2.5-2.7-4.4-4.8c0,9.6-0.6,18,0.1,26.2
	c1,11-1.5,14.1-12.6,14c-25.8-0.3-51.6-0.6-77.4-0.7c-5.8,0-11.6,0.8-17.4,1.6c-3.9,0.6-6,3-6,7.3c-0.2,16.2-0.7,32.3-0.7,48.4
	c0,14.1,1.9,15.9,15.9,15.4c15-0.5,29.9-1.7,44.9-2.3c12.8-0.5,25.6-1.2,38.4-1c12,0.2,20.2,5.5,19.4,19.1
	C471.3,203.4,471.9,207,472.2,211.6z M26.1,242.7c36.1-30.5,71.5-60.3,107.1-90.4C94.3,119.5,62,81,29,41.4
	c-1.3,7.4-3.1,13.6-3.3,20c-0.5,16.6-0.1,33.3-0.2,49.9c-0.2,37.8-0.6,75.6-0.7,113.4C24.7,230.6,25.6,236.6,26.1,242.7z
	 M275.2,151.7c35,28.6,70.1,57.3,106,86.7c0.6-11.9,1.1-22.8,1.7-34.1c-6.1,0.3-11.1,0.7-16.1,0.7c-23.9,0.1-34.2-10.1-34.3-33.9
	c0-0.3,0-0.7,0-1c0.4-17,0.7-34,1.3-50.9c0.5-14.1,8.4-23.5,22.4-26c6.8-1.2,13.9-1.4,20.9-2c1.7-0.2,3.5-0.2,5.4-0.3
	c0.2-14,0-27.4-4.9-40.4C343.1,84.7,308.8,118.5,275.2,151.7z"/>
</svg>
