<?xml version="1.0" encoding="utf-8"?>
<!-- Generator: Adobe Illustrator 23.1.0, SVG Export Plug-In . SVG Version: 6.00 Build 0)  -->
<svg version="1.1" id="Calque_1" xmlns="http://www.w3.org/2000/svg" xmlns:xlink="http://www.w3.org/1999/xlink" x="0px" y="0px"
	 viewBox="0 0 567.1 697.3" style="enable-background:new 0 0 567.1 697.3;" xml:space="preserve">
<path d="M2.9,642.3c0.8-10,1.5-20.1,2.2-29.7c0.1-0.7,0.5-1.3,1.2-1.6c9.2-3.5,18.6-6.2,27.1-10.7c7.3-3.9,14.3-9.3,19.9-15.4
	c10.2-11.1,10.6-25.8,2.7-40c-5.9-10.6-20.1-17.5-33.4-15.6c-5.5,0.8-10.8,2.7-16.3,4.1c0.1,0.3-0.1,0-0.1-0.3
	c1.3-9.2,2.5-18.4,3.7-27.2c0.1-0.8,0.8-1.5,1.6-1.6c6.6-0.8,13-1.1,19-2.7c21.8-5.9,33.3-24.9,28.4-46.1
	c-4.5-19.4-20-29.4-39.6-25.3c-2.6,0.5-5.1,1.3-7.8,2c-1.2,0.3-2.4-0.6-2.4-1.9l1.2-23.5c0-0.9,0.7-1.6,1.6-1.7
	c23.4-3.7,36.8-19.3,45.2-39.9c9.5-23.3-3.2-41.9-28.4-42c-6.1,0-12.3,1.6-19.1,2.8c-1.2,0.2-2.3-0.7-2.2-1.9c0.2-4.1,0.4-8.6,1-13
	c0.6-4.1,0.7-9.3,3.2-11.8c2.4-2.4,7.6-2,11.6-2.7c10.8-1.9,20.5-5.7,28-14.1c10.5-11.7,12.1-28.6,3.9-41.7
	c-8.6-13.8-25.2-20.6-40.1-16.5c-0.3,0.1-0.5,0.2-0.8,0.2c-1.2,0.4-2.4-0.5-2.4-1.8v-16.5v-17.5c0-1.1,0.9-2,2-1.8
	c8,0.8,15.7,0.5,23.1-2.7c10.8-4.7,17.8-12.5,18.8-24.4c1.1-12.2-4-21.7-14.4-28.2c-10.1-6.3-21.5-7.6-33.1-7.5
	c-2,0-3.9,0.2-6.4,0.5c-1.2,0.1-2.1-0.9-2-2c0.8-9.1,1.5-18,2.3-27.1c0.1-1.1,1.2-1.9,2.3-1.7c19.7,4.1,36.4,0.6,47.1-16.4
	c10.9-17.4,5.6-33.5-6.4-48.4c-1-1.2-0.1-3.1,1.5-3c11.4,0.2,22.7,3.7,32.7-3.5c1-0.7,2.3-0.4,2.8,0.7c5.4,11.6,20.3,19.1,34.3,17.1
	c17.8-2.4,29.5-13,33.6-30.1c0.2-0.9,1.2-1.5,2.1-1.4c11.2,1.9,22.4,3.7,33.9,5.6c0.7,0.1,1.3,0.7,1.5,1.4
	c3.5,13.6,21.1,26.1,41.1,26.9c22.5,0.8,38-13.3,46.2-40.5c0.3-0.9,1.1-1.5,2.1-1.3c7.4,1.2,14.9,2.9,22.4,3
	c7.3,0.2,10.4,2.9,13.1,9.7c6.5,16.6,24,27.5,40.5,26.6c17.1-0.9,32.4-12.8,37.4-29.2c0.9-3,1.3-6.1,1.9-9.6
	c0.2-1.1,1.4-1.8,2.5-1.4c9.5,3.4,19.2,6.7,29.7,5c0.9-0.1,1.8,0.4,2.1,1.3c4.1,15,15.5,22.5,28.7,27.9c13.5,5.6,27.6,7.4,42.1,4.6
	c7.9-1.5,18-7.1,28.7-14.9c1.1-0.8,2.6-0.2,2.9,1.1c2.8,13.6,7.9,23.1,21.9,36.4c0.7,0.6-0.1,1.8-0.9,2.2
	c-15.5,8.1-29.7,31.6-23.9,52.3c2.7,8.6,8.9,23.3,22.6,34.4c0.5,0.4,0.9,0.9,0.9,1.6v45.5c0,0.8-0.5,1.4-1.2,1.7
	c-8.4,3.5-14.6,10.3-19.1,17.7c-4.8,7-6.9,13-7.4,22.2c0,0.1,0,0.1,0,0.2c1,18.3,1.9,33.9,23.9,39.6c0.8,0.2,1.4,0.9,1.4,1.8V317
	c0,0.6-0.3,1.1-0.7,1.5c-6.5,5.2-13.5,9.6-18.8,15.5c-0.1,0.1-0.2,0.2-0.2,0.3c-12.9,20.6-4.9,50.8,18.4,63.6
	c0.2,0.1,0.3,0.2,0.5,0.2c4.2,1,8.8,0.7,13.7,0.8c1.1,0,1.9,0.9,1.8,2c-0.4,5.2-0.9,10.9-1.1,16.7c-0.3,8.5-1.8,14.1-12,17.8
	c-20.7,7.6-29.6,34.8-24,55.5c5.2,19,17.4,32.4,37.1,31.4c0.6,0,1.2-0.1,1.7-0.1c1.1-0.1,2,0.8,2,1.9c0,5.3-0.2,10.5,0.1,15.6
	c0.3,5.3,1,10.6,1.6,16.1c0.1,0.9-0.5,1.8-1.4,2c-1.2,0.3-2.5,0.6-3.7,1c-18.1,5.9-29.7,18.1-33.7,36.8
	c-3.7,17.3,13.8,39.4,32.9,39.5c1,0,1.8,0.8,1.8,1.9v14.7c0,1-0.8,1.8-1.8,1.9c-16.1,0.6-30.9,5.1-44.8,13.1c-0.9,0.5-2,0.2-2.5-0.7
	c-6.3-10.5-14.9-17.8-26.4-21.6c-24.2-8.1-50.9,5-59.2,28.8c-0.5,1.3-2.5,2.2-4,3.1c-0.5,0.3-1.3,0.1-2,0.1
	c-5.2,0-11.2,1.7-15.2-0.5c-3.7-2-5.1-8.1-7.6-12.3c-8.4-13.9-20-22.6-36.8-22.8c-18.7-0.3-35.3,15.7-35.9,34.5
	c-0.1,2.7,0,5.5,0,8.4c0,1-0.8,1.9-1.9,1.9h-36.3c-0.8,0-1.5-0.5-1.7-1.2c-3.4-9.2-8.5-17.8-16.4-24.3
	c-12.3-10.1-26.2-12.3-40.7-5.9c-14.2,6.3-20.5,18.4-20.9,33.6c-0.1,2.7-0.9,4.1-3.3,4.6c-5.3,1.2-10.5,2.4-16.7,3.7
	c-1,0.2-2-0.4-2.2-1.5c-0.9-4.7-1.8-9.2-2.7-13.7c-1-5.2-1.5-10.6-3.1-15.6c-6.1-18.5-25.3-24.7-40.9-13.3
	c-13.9,10.2-22.6,23.8-25.3,41.1c-0.1,0.8-0.8,1.5-1.6,1.6c-7.2,0.9-14.5,1.8-21.7,2.7c-1.1,0.1-2-0.7-2.1-1.7
	c-3.4-49.1-46.7-67.1-83.9-51.3C4.2,644.7,2.8,643.7,2.9,642.3z M498.6,611.4c0.8-18.6,6.3-28.9,6.5-47.6c0.6-43,1.3-85.9,0.9-128.9
	c-0.4-49.8-1.5-99.6-3-149.4c-1.1-36.6-3-73.2-5.5-109.8c-2.5-36.5-6.4-73-9.6-109.5c-1-10.9-7.7-14.7-15.1-10.6
	c-0.3,0.2-0.7,0.3-1.1,0.2C439,53.4,408,54,377,53.9c-31.3-0.1-62.6,0.2-93.9,1c-31.3,0.9-62.6,2.2-93.8,4.2
	c-30.7,2-61.3,5-92.4,7.7c-1,0.1-1.8-0.6-2-1.5c0,0,0,0,0,0c-0.5-3-1.4-5.6-5.1-5.5c-3.7,0.1-4.6,2.6-4.9,5.7
	c-0.4,5.8-1,11.6-1.4,17.4c-4.6,72.8-6.4,145.8-6.5,218.7C76.7,390.7,77,479.8,76.9,569c0,17.2-0.6,9.7-0.6,26.9
	c0,3.7,1.5,20.5,3.1,23.8c1.2,2.3,15.2,5.3,18.1,5.8c0.1,0,0.2,0,0.3,0c44.2,0.4,65.7-1.6,103.3-3.7c52.9-3,103.4,3.9,156.4,4.1
	c39.5,0.2,76.8,0.3,116.3,0c5,0,6.8-1.7,11.6-3.7"/>
</svg>
