<?xml version="1.0" encoding="utf-8"?>
<!-- Generator: Adobe Illustrator 23.1.0, SVG Export Plug-In . SVG Version: 6.00 Build 0)  -->
<svg version="1.1" id="Calque_1" xmlns="http://www.w3.org/2000/svg" xmlns:xlink="http://www.w3.org/1999/xlink" x="0px" y="0px"
	 viewBox="0 0 759.2 421" style="enable-background:new 0 0 759.2 421;" xml:space="preserve">
<style type="text/css">
	.st0{fill:none;stroke:#000000;stroke-width:4;stroke-miterlimit:10;}
</style>
<g>
	<path d="M758.5,201.8c-3.2,2.8-6.2,6-9.7,8.5c-19.8,14-39,29-59.8,41.4c-20.5,12.2-43.5,18.6-67.3,22c-39.4,5.5-76.8-2.4-114-14.5
		c-35.8-11.6-72.1-12.5-108.6-2.2c-24.5,6.9-46.9,17.8-67.1,33.2c-2,1.5-4,3.9-6.1,4.1c-3.7,0.3-7.4-0.9-11.1-1.5
		c0.9-3.7,0.7-8.8,3-10.7c18.5-15.6,39.4-27.3,62.3-35.3c20.5-7.2,41.6-11.2,63.4-12c32.6-1.2,63.5,6.5,93.7,17.8
		c0.4,0.2,0.7,0.8,1.1,1.3c-2.4,2.4-4.7,4.7-7.1,7.1c9.4-2.2,16.9-6.3,26.7-4.3c44.6,9.1,87,2,126.7-19.7
		c14.2-7.7,27.2-17.9,40-27.8c6-4.7,10.5-10.6,18.4-13.7c7-2.8,11.2-2.9,15.3,3.1C758.3,199.6,758.4,200.7,758.5,201.8z"/>
	<path d="M328.2,166.3c9.4-4,18.8-8.1,28.2-12.1c25.2-10.6,51.5-14.9,78.7-13.3c17.4,1,34.9,2.8,52.1,5.8c9.7,1.7,18.8,7.2,28.4,9.9
		c11.8,3.3,23.9,5.7,36,8c1.6,0.3,3.8-1.9,5.1-2.7c3.3,1.2,6.6,3.5,10,3.6c39.8,0.9,77-8.9,110.7-30c13.7-8.6,26.2-19.4,39.3-29
		c4-2.9,8.1-6.1,12.7-7.6c2.7-0.9,8.5,0.4,9.2,2.2c1.1,2.8,0.3,8.4-1.9,10.1c-14.5,11.5-29.2,22.8-44.5,33.2
		c-11.2,7.5-23.4,13.5-35.2,20.3c2.9,8.7-5.9,10.2-9.1,15.4c-0.7-0.1-1.5-0.3-2.2-0.4c-0.3-3.6-0.5-7.3-0.8-10.8
		c-44.8,12.3-96.4,14.3-102.7,4.3c-1.1,1.3-2.5,4.2-3.2,4c-2.7-0.7-6.9-1.8-7.5-3.7c-2.5-7.3-6.9-5.5-11.9-3.8
		c-2,0.7-4.4,1.7-6.2,1.1c-9.6-3.1-18.9-7.3-28.6-9.9c-12-3.1-24.3-4.9-36.7-5.9c2.9,1.1,5.8,2.2,8.7,3.4c-0.1,1-0.2,2.1-0.3,3.1
		c-4.2-0.1-8.4-0.3-13.3-0.4c2.1-7.2-2.1-7.9-6.9-7.6c-10.7,0.6-21.3,1.6-32,1.9c-4.1,0.1-8.2-1.1-14.1-2.1
		c-6.4,12.6-22.8,11.5-35.2,18c-6.7,3.5-16.1,4.1-15.8,15.8c-0.9,0.2-1.8,0.4-2.7,0.7c-1.1-1.7-2.1-3.4-3.6-5.9
		c-7.1,5.2-14.2,10.4-21.3,15.7c-4.2,3.1-9,6.2-13,0.9c-3.8-5-1.9-9.7,3.4-13.3c9-6.2,17.7-12.8,26.6-19.2L328.2,166.3z"/>
	<path d="M695.7,198.6c-6.3,2.2-11.6,3.3-16.1,5.8c-26.5,14.5-54.9,21.1-84.9,23.1c-33,2.1-64-5.5-94.8-15.9
		c-9.6-3.3-19.5-5.5-29.3-8.4c-3-0.9-5.9-2.4-8.8-3.4c-1.8-0.6-4.2-1.7-5.4-1c-11.1,6.1-23.3,3-34.9,3.7c-18,1.2-34.5,7-50.9,13.4
		c-9.4,3.7-18.4,8.5-27.2,13.3c-1.8,1-1.8,4.6-3.3,6.6c-2.2,3-4.8,5.8-7.6,8.1c-0.3,0.3-3.4-2.7-5.3-4.4c-2.7,2.1-5.6,4.7-8.8,6.9
		c-4.1,2.9-8.4,3.3-11.7-1c-3.5-4.6-1.2-8.2,2.6-11.4c18.3-15,38.3-27.3,61.1-33.9c15.4-4.4,31.1-8.1,47-10
		c16-1.9,32.4-1.2,48.3-1.7c2.4,4.8,4.4,8.5,7.3,14.4c1.6-5.2,2.3-7.7,3.5-11.8c8.4,2.1,16.7,4.2,25.1,6.2
		c22.6,5.4,45,11.9,67.8,15.6c12.2,2,25.3,0.2,37.7-2c15.7-2.7,31.3-6.6,46.4-11.6c22-7.2,41.1-19.9,58.8-34.8
		c7.4-6.2,15.3-11.7,23.2-17.3c4.2-3,9.1-4,12.1,1.5c2.6,4.9,0.4,8.5-4.1,11.8c-15,10.7-29.8,21.8-44.5,33
		C697.2,194.9,696.4,197.5,695.7,198.6z"/>
	<path d="M703,293.2c-6.3,2.2-11.6,3.3-16.1,5.8c-26.5,14.5-54.9,21.1-84.9,23.1c-33,2.1-64-5.5-94.8-15.9
		c-9.6-3.3-19.5-5.5-29.3-8.4c-3-0.9-5.9-2.4-8.8-3.4c-1.8-0.6-4.2-1.7-5.4-1c-11.1,6.1-23.3,3-34.9,3.7c-18,1.2-34.5,7-50.9,13.4
		c-9.4,3.7-18.4,8.5-27.2,13.3c-1.8,1-1.8,4.6-3.3,6.6c-2.2,3-4.8,5.8-7.6,8.1c-0.3,0.3-3.4-2.7-5.3-4.4c-2.7,2.1-5.6,4.7-8.8,6.9
		c-4.1,2.9-8.4,3.3-11.7-1c-3.5-4.6-1.2-8.2,2.6-11.4c18.3-15,38.3-27.3,61.1-33.9c15.4-4.4,31.1-8.1,47-10
		c16-1.9,32.4-1.2,48.3-1.7c2.4,4.8,4.4,8.5,7.3,14.4c1.6-5.2,2.3-7.7,3.5-11.8c8.4,2.1,16.7,4.2,25.1,6.2
		c22.6,5.4,45,11.9,67.8,15.6c12.2,2,25.3,0.2,37.7-2c15.7-2.7,31.3-6.6,46.4-11.6c22-7.2,41.1-19.9,58.8-34.8
		c7.4-6.2,15.3-11.7,23.2-17.3c4.2-3,9.1-4,12.1,1.5c2.6,4.9,0.4,8.5-4.1,11.8c-15,10.7-29.8,21.8-44.5,33
		C704.5,289.5,703.7,292.1,703,293.2z"/>
</g>
<g>
	<path class="st0" d="M168.6,18c0.5-1.7,0.5-3.6,1.5-4.9c2.2-3,4.3-6.1,8.8-6.5c17.5-1.8,34.9-3.3,52.5-1.6
		c15,1.5,29.9,3.1,43.8,8.7c19.6,7.9,38.6,17.3,56.7,28.7c11.4,7.2,19.4,17.6,29.8,25.5c4.8,3.6,9.2,7.9,13.1,12.5
		c3.2,3.9,5.1,8.8,7.9,13c3.4,5,7.6,9.6,10.9,14.7c8.3,12.8,13.9,26.9,18.5,41.4c1,3.2,3.5,6.2,1,9.8c-0.2,0.3,0,1,0.2,1.4
		c6.7,18,9.8,45.6,7.3,64.7c-1.4,10.7-2.5,21.4-4.4,31.9c-1.2,6.7-3.1,13.3-5.5,19.6c-8.2,22-18.2,43.2-33.1,61.5
		c-15,18.4-31.9,34.7-52.4,47.3c-18.9,11.6-38.5,21.3-60.1,26.1c-17,3.8-34.2,7.4-51.8,6.3c-15.2-0.9-30.5-2.3-45.3-5.6
		c-21.7-4.8-42.5-12.7-61.3-25.1c-13-8.5-26.1-16.8-36.3-28.8c-4.2-5-9.7-9-14-14c-17.8-21-30.8-44.6-39.3-70.9
		c-5.2-16.2-8.8-32.6-9.2-49.4c-0.3-14.3,0-28.9,2.1-43c2.3-14.9,6.1-29.7,11-43.9c6.5-18.7,16.5-35.7,28.6-51.6
		c9.5-12.5,20.4-23.4,32-33.7c22.1-19.5,48.2-31.6,76.1-40.2C162.1,10.6,166.1,13.1,168.6,18z M20.2,199.5c4.5,1.9,1.9,6.1,1.6,9.8
		c-1.3,12.4,1,24.5,2.9,36.7c2.8,18.2,7.7,35.9,16.6,52.1c5.7,10.5,11.5,21.1,19,30.3c9,11.2,19.8,21,29.9,31.5
		c0.8,0.8,2.3,2,2.1,2.6c-1.9,6.7,2.8,5.9,6.8,6c1.1,0,2.4,0.4,3.3,1.1c14.9,11,31.5,18.9,48.8,25c24.6,8.6,50.3,11.4,76.4,9.8
		c7.2-0.4,14.4-1.1,21.4-2.8c11.6-2.8,23.3-5.7,34.3-10.2c14.2-5.9,28.3-12.4,41.3-20.5c10.4-6.4,19.9-14.8,28.2-23.8
		c10.3-11.2,19.6-23.4,28.1-36.1c5.8-8.6,10-18.5,13.6-28.2c4.3-11.7,7.2-23.9,10.6-35.9c0.9-3.3,1.6-6.7,2.2-10.1
		c0.5-2.8,0.7-5.6,0.8-8.4c0.1-4.7-0.5-9.5,4.4-12.8c1.8-1.2,3.1-3.3,4.6-5c-0.4-0.4-0.8-0.7-1.1-1.1c-1.6,0.4-3.2,0.8-5.3,1.3
		c-0.9-2.3-2.1-4.4-2.4-6.7c-1.1-8.9-1.4-18-2.9-26.8c-3.9-23.3-13.2-44.6-24.6-65c-2.4-4.3-4.8-8.5-7.9-12.3
		c-4.9-6.2-11-11.4-15.2-18c-7.2-11.3-17.6-18.9-28.1-26.5c-5.7-4.1-12.4-6.8-18.5-10.4c-2.5-1.5-4.4-4-7-5.1
		c-15.9-6.8-31.5-14.5-49.4-15.6c-12.7-0.7-25.3-2.9-38-3.3c-9.4-0.3-18.9,1.1-28.3,2.3c-7.7,0.9-15.7,1.6-22.9,4.2
		c-14.8,5.2-29.8,9.7-43.5,18c-18.8,11.4-36.5,24.1-51.1,40.6c-7,7.9-14,15.8-18.7,25.5c-4.9,10.1-10.8,19.8-15.8,29.9
		c-2.6,5.3-4.4,11.1-5.9,16.9c-2.8,10.7-5,21.6-7.5,32.4C22.3,193.5,21.3,196,20.2,199.5z M270.8,22.8c10.3,4,19.5,7.5,28.7,11.1
		c0.2-0.5,0.4-0.9,0.5-1.4C296.1,27.2,277.2,20.2,270.8,22.8z M348.7,63.2c-0.3,0.4-0.7,0.8-1,1.2c5.1,9,10.7,14.3,16.8,14.9
		C358.7,73.4,353.7,68.3,348.7,63.2z M127.4,32c0.1,0.3,0.2,0.6,0.3,0.9c11.4-4.2,22.8-8.4,34.2-12.6c-0.1-0.3-0.2-0.6-0.3-0.9
		C150.2,23.6,138.8,27.8,127.4,32z"/>
	<path class="st0" d="M79.3,199.9c0.3-1.8,0.6-3.6,0.9-5.6c-9.9,1.2-10.2,1.2-8.9-8.2c2.5-18,9.1-34.5,18.3-50
		c7.3-12.3,16-23.5,26.9-32.7c5.9-4.9,12.5-9,19.3-12.8c8.9-5,18.3-9.2,27.4-13.9c1.6-0.8,2.8-2.5,4.4-3c3.4-1.2,6.9-1.9,10.4-2.7
		c1.5-0.3,3.2-0.3,4.8-0.4c6.9-0.7,13.4-3.5,20.5-3.8c3-0.1,5.8-2.2,9.1-0.2c0.5,0.3,2.2-1.4,3.4-2.2c3.7,6.2,5.8-0.9,8.5,0
		c4.5,1.4,8.9,3.2,13.4,4.1c6.2,1.3,12.7,1.4,18.7,3.3c6.4,2,12.3,5.5,18.5,8.3c4.8,2.1,9.9,3.8,14.6,6.1c2.7,1.3,4.9,3.5,7.4,5.4
		c4.3,3.3,8.8,6.5,12.9,10c5,4.3,10.3,8.6,14.5,13.6c16.7,20.1,29.2,42.4,33.4,68.6c1.1,7.1,3.6,14.9,1.8,21.4
		c-1.6,5.8,2,10.2,0.5,15.5c-1.5,5.2-1.1,10.9-1.8,16.3c-0.3,2.4-1,4.8-1.8,7.1c-3.3,10.1-0.7,15.6,9,19.2c4.1,1.5,8.1,3.4,12.2,5
		c3.1,1.2,3.4,3.1,1.5,5.7c-1.2,1.7-2.3,3.5-2.9,5.4c-2,6.1-5.2,8.8-9.9,8c-5.3-0.9-10-6.8-9.1-12.2c0.4-2.6,0.5-4.1-2.1-5.6
		c-1-0.6-1-3.1-1.2-4.7c-0.2-1.8,0-3.6,0.1-5.4c-0.6-0.2-1.2-0.4-1.7-0.5c-1.3,2.6-2.6,5.2-3.9,7.8c-4.2,8.2-8.6,16.3-12.7,24.4
		c-5.8,11.4-15.2,19.8-24.1,28.5c-4.8,4.7-10.7,8.4-16.4,12.1c-6.4,4.2-12.8,8.5-19.6,11.7c-10.2,4.9-20.9,8.8-32.3,10.1
		c-10.1,1.2-20.1,3.2-30.2,3.2c-17.1,0-33.8-2.6-49.7-9.7c-5.4-2.4-11.3-3.5-16.8-5.6c-1.8-0.7-2.9-3-4.6-3.9
		c-13.2-7-24.5-16.4-34.2-27.4c-7.9-9-14.7-19.1-21.1-29.3c-9.8-15.6-14.3-33.1-16.7-51.2c-1-7.6-1.3-15.5-0.8-23.1
		c0.2-2.8,3.5-5.6,5.8-8.1C75.2,198,77.6,199.3,79.3,199.9z M325.9,150.7c-2.8,1.3-5.1,2.6-7.7,3.4c-2.7,0.9-5.6,1.5-8.5,1.7
		c-1.1,0.1-2.3-1.1-3.4-1.7c0.9-0.9,1.7-2.2,2.9-2.7c3-1.2,6.2-2,9.2-3.2c3.1-1.2,4.5-3.4,2.6-6.5c-2.3-3.6-4.5-7.2-7.3-10.3
		c-5.7-6.2-11.5-12.4-17.8-18c-5.4-4.8-11.2-9.2-17.2-13.2c-3.5-2.3-8-2.9-11.7-4.9c-15.3-8.6-31.3-13.2-49-10.7
		c-4.1,0.6-8.7,1.2-12.6,0.1c-5.3-1.5-10-0.7-14.8,0.8c-3.8,1.2-7.5,4.3-11,4.1c-5.4-0.4-10,1.3-14.4,3.4c-2.7,1.3-4.6,4.2-7.1,6.1
		c-2.1,1.7-4.5,3-6.8,4.4c-1.6,1-3.2,2-4.9,2.8c-1.6,0.8-3.6,1-4.8,2.1c-6.5,5.6-13.4,10.8-19,17.2c-7.2,8.3-14.1,17.1-19.4,26.7
		c-6.4,11.5-10.5,24.1-12.1,37.3c-1,8.5-2.1,17.1-1.8,25.6c0.9,22,6.4,42.8,18.6,61.4c4.1,6.3,7.8,13.2,15.2,16.6
		c0.7,0.3,1.7,1.6,1.6,2.2c-1.2,6.9,4.9,7,7.2,9.1c1.9-4.7,3.2-9.3,5.6-13.2c0.6-0.9,5.1,0.7,7.8,1.1c0.3,0.6,0.7,1.1,1,1.7
		c-2.6,3.7-4.8,7.7-7.8,11c-2.2,2.5-2.3,3.7,0.3,5.8c11.9,9.3,25,16,39.6,20.3c23.5,7,46.8,7.9,70.4,0.8
		c19.3-5.8,36.8-14.4,51.7-28.1c9.8-8.9,17.3-19.6,24.4-30.7c7-11.1,10.6-23.6,13.7-36c3.1-12.4,4.1-25.2,2.5-38.1
		C339,182.6,334.8,166.4,325.9,150.7z M128.9,105.7c2.4-0.6,3.9-0.6,5-1.3c3.6-2.2,7.1-4.5,10.6-6.9c1-0.7,1.6-2,2.6-2.8
		c1.9-1.5,3.9-3.3,6.1-4.1c6-2.3,12.2-4,18.3-6.2c1.2-0.4,2.1-1.6,4.2-3.4c-3.2-0.3-5.2-1.1-6.5-0.6c-5.1,2.1-9.9,4.6-14.9,7
		c-2.1,1-4.2,2.2-6.3,3.4c-5.7,3.3-11.4,6.6-17,10.1C130.1,101.6,129.9,103.4,128.9,105.7z M83.9,173c5.3-11.6,10.5-23.2,15.8-34.8
		C92.4,148.9,86.4,160.2,83.9,173z M299.1,319c-0.4-0.6-0.8-1.3-1.2-1.9c-4.5,2.9-9.1,5.9-13.6,8.8c0.4,0.6,0.7,1.1,1.1,1.7
		C289.9,324.8,294.5,321.9,299.1,319z M321.5,293.1c0.4,0.3,0.8,0.5,1.3,0.8c3.4-4.9,6.8-9.8,10.2-14.7c-0.5-0.4-1.1-0.7-1.6-1.1
		C328,283.1,324.8,288.1,321.5,293.1z M235.8,346c-0.1-0.8-0.2-1.5-0.4-2.3c-5.1,0.9-10.2,1.8-15.3,2.7c0.1,0.6,0.2,1.2,0.3,1.7
		C225.6,347.4,230.7,346.7,235.8,346z M79.2,207.3c-0.7,0.1-1.4,0.1-2.1,0.2c0.4,4,0.8,8,1.3,11.9c0.5-0.1,1-0.1,1.5-0.2
		C79.6,215.3,79.4,211.3,79.2,207.3z M349.3,227.2c-0.6,0-1.1,0-1.7,0c-0.3,3.7-0.7,7.5-1,11.2C349.2,234.8,351,231.2,349.3,227.2z
		 M134,321.8c0.3-0.5,0.7-1,1-1.5c-2.5-2-4.9-4-7.4-6.1c-0.4,0.5-0.8,1-1.2,1.5C128.9,317.8,131.5,319.8,134,321.8z M141,324.2
		c-0.3,0.4-0.5,0.9-0.8,1.3c3.2,2,6.5,3.9,9.7,5.9c0.3-0.6,0.7-1.1,1-1.7C147.6,327.9,144.3,326.1,141,324.2z M128.3,107.8
		c-0.4-0.6-0.9-1.2-1.3-1.8c-2.5,2.1-5,4.1-7.5,6.2c0.3,0.4,0.6,0.8,0.9,1.3C123,111.6,125.7,109.7,128.3,107.8z"/>
	<path d="M273.6,380.2c-9.3,3.1-12.1,1.1-16.3-11.5c-2.1-6.3,1.6-12.3,8.9-14.8c6.7-2.2,13.9,1.2,15.9,8
		C284.5,370.3,284.4,377.4,273.6,380.2z M273.6,366.6c-2.3-1.5-4-2.6-5.7-3.8c0,1.4-0.5,3.1,0,4.3c0.9,1.8,2.5,3.2,3.8,4.7
		C272.3,370.4,272.8,368.9,273.6,366.6z"/>
	<path d="M356.8,315.6c-4.6,1.7-14-4.3-16.5-10.5c-2.2-5.7,1.7-14.6,7.4-16.8c5.5-2.1,16.8,3.7,19,9.8
		C368.6,303.8,363.3,313.2,356.8,315.6z M350,297.1c-0.8,2.2-1.6,3.8-1.4,3.9c2.3,1.7,4.8,3.1,7.3,4.6c0.6-1,1.8-2.8,1.6-3
		C355.4,300.8,353.1,299.3,350,297.1z"/>
	<path d="M142.5,357.9c-0.1-3.6-1-6.5,0-8.4c1.8-3.3,4.8-1.4,7.4-0.1c2.4,1.2,4.9,2.1,7.4,3c4.1,1.6,4.5,3.4,2.6,7.2
		c-2.3,4.7-4.4,9.6-6.2,14.6c-1.3,3.7-3.7,4.6-6.9,3.3c-4-1.6-8-3.4-11.7-5.5c-0.9-0.5-1.7-3.4-1.2-4.2
		C136.8,364,140.1,360.6,142.5,357.9z"/>
	<path d="M338.3,317.8c5,0.1,8,3,9.4,7c1.5,4.4-1.8,10.5-6.1,13.2c-3.8,2.4-7.6,1.2-8.3-3.2c-0.4-2.6-1.5-3-3.7-3.5
		c-6.5-1.5-9.4-7.5-6-13.3c1.7-2.9,4.3-5.4,7.1-7.3C334.8,308,337.8,310.7,338.3,317.8z"/>
	<path d="M237.9,379.9c-5.6-4.1-5.5-7.3-0.7-10.1c1-0.6,1.9-2.5,1.8-3.7c-0.5-3.8,1.6-4.8,4.7-5.5c3.5-0.8,5,0.7,5.6,3.8
		c1.2,5.8,2.8,11.6,3.4,17.5c0.2,1.7-2.1,4.6-3.8,5.2c-3.8,1.3-8,1.8-12.1,2.1c-1.1,0.1-3.1-1.6-3.3-2.6
		C233.2,383.8,232.7,380.3,237.9,379.9z"/>
	<path d="M174.8,385.7c-3.8-0.9-8.3-1.7-12.6-3c-0.7-0.2-1.2-2.9-0.8-4.2c0.7-2.4,2.3-4.9,5.3-3.8c3.5,1.3,6.1,1.1,6.7-2.9
		c0.5-3.2-1.4-5.1-4.9-5.6c-1.1-0.2-3-2.5-2.8-3.4c0.5-2,1.8-4.7,3.4-5.3c3.5-1.3,13.1,3.9,14.6,7.2c1.7,3.6-0.6,13.7-3.8,16.8
		C178.6,382.6,177.1,383.7,174.8,385.7z"/>
	<path d="M225.6,390.6c-5.3-0.2-9.6-0.6-13.8-0.3c-3.5,0.3-5.1-0.7-5-4.2c0.1-3.6,2.2-4.5,5.3-4.3c0.5,0,0.9,0,2.1,0
		c-2.3-2.2-8-2-5.2-6.7c2.2-3.8,7.3-5.7,8-11c0.1-0.5,5.2-0.3,8.8-0.5C225.7,372.7,225.7,381.3,225.6,390.6z"/>
	<path d="M310.1,330.2c0.7,0.3,2.4,0.5,3.4,1.4c2,1.9,3.8,4.1,5.1,6.5c1.8,3.2,3.4,5.2,7.4,3c0.7-0.4,3.2,1.4,3.9,2.8
		c0.6,1.1,0.6,3.6-0.2,4.4c-3.7,3.5-7.8,6.6-11.9,9.7c-0.7,0.5-2.6,0.5-3,0c-1.3-1.5-3.5-4.3-3.1-5c4.8-6.8-2.3-9.5-4.7-13.3
		C304.3,335.3,304.4,332.2,310.1,330.2z"/>
	<path d="M48.1,243c-2.8-0.2-5.4-0.4-8-0.6c1.5-2.2,2.9-4.4,4.8-7.2c-0.4-0.4-1.9-1.3-2.5-2.6c-0.5-1.2-0.1-2.9,0-4.4
		c1.3,0.3,3.3,0.2,3.8,1c2.3,3.3,3.6,2.6,5.2-0.6c0.7-1.4,2.5-2.2,3.8-3.2c0.3,1.8,0.7,3.5,0.8,5.3c0.1,0.7-0.4,1.5-0.7,2.4
		c2.9,1.7,5.6,3.3,8.3,4.9c-0.1,0.5-0.2,1-0.2,1.5c-1.5,0.3-2.9,0.7-4.4,0.8c-1.4,0.1-2.8-0.2-3.3-0.3c-0.8,3.5-1.5,6.2-2.2,8.9
		C51.5,246.7,49.6,244.6,48.1,243z"/>
	<path d="M72.1,300.2c1.4-1.6,3.5-3.9,5.6-6.2c0.6,0.4,1.2,0.8,1.8,1.2c-0.6,2.4-1.3,4.8-2,7.6c1.6,0.4,3.2,0.5,4.6,1.2
		c1.3,0.6,2.3,1.9,3.4,2.9c-1.5,0.8-2.8,2-4.4,2.3c-1.3,0.3-2.9-0.4-5.3-0.9c0.7,2,1.5,3.5,1.4,4.8c0,1.4-0.9,2.9-1.4,4.3
		c-1.2-0.8-2.8-1.3-3.6-2.4c-1-1.3-1.3-3.2-1.8-4.5c-3.3-0.3-4.7,5.7-7.6,1.6c-3.2-4.5,2.8-4.9,3.7-6.3c-1.1-3.4-1.9-6-2.6-8.5
		C66.6,298.3,69.2,299.2,72.1,300.2z"/>
	<path d="M369.4,156.9c-1.6-0.6-3.2-1-4.6-1.8c-1.1-0.7-1.9-1.9-2.8-2.9c1.3-0.7,2.6-1.8,4.1-2c1.5-0.2,3.1,0.5,5.6,1
		c-0.6-2.4-1.4-4.3-1.4-6.1c0-1.4,1.1-2.7,1.7-4.1c1.2,1.1,2.6,2,3.3,3.4c0.5,1,0.1,2.5,0,4.9c1.9-0.8,3.2-1.6,4.6-1.9
		c1.6-0.3,3.3-0.2,4.9-0.3c-0.6,1.5-0.7,3.6-1.8,4.3c-3.1,2-4.4,3.5-0.6,6.2c0.8,0.6,0.4,2.8,0.6,4.3c-1.6-0.3-4-0.1-4.8-1.1
		c-2.4-3.3-3.8-3.2-5.5,0.5c-0.7,1.4-2.4,2.4-3.7,3.5c0-1.9-0.1-3.7-0.1-5.6C368.9,158.7,369.2,158,369.4,156.9z"/>
	<path d="M193.9,363.6c6.5-2.1,8.7-0.3,7.9,5.7c-0.6,5.3-1.4,10.5-1.8,15.8c-0.2,2.8-0.3,5-3.9,4.8c-3.3-0.2-6.6-1.2-6.3-4.9
		c0.4-6.6,1.7-13.1,2.7-19.7C192.6,364.5,193.7,363.8,193.9,363.6z"/>
	<path d="M57.2,267.5c2.4-1.9,2.6-7.5,9.1-3.6c-1.4,1.7-3,3.5-5.1,6c4.1,1.1,6.9,1.8,9.8,2.6c-0.5,7.9-6.2,2.2-9.7,3.6
		c0.5,1.7,1.3,3.4,1.3,5c0,1.2-1,2.5-1.5,3.7c-1.2-0.7-2.5-1.2-3.4-2.1c-0.6-0.6-0.6-1.8-0.9-2.8c-0.6-2.6-1.6-3.3-4.2-1.7
		c-1.4,0.9-3.6,0.6-5.4,0.8c1-1.5,2.2-3,3-4.7c0.6-1.2,1.1-2.7,0.9-4c-0.3-1.9-1.2-3.7-1.8-5.5c2,0.6,4,1.2,6,1.8
		C55.9,267,56.5,267.3,57.2,267.5z"/>
	<path d="M355.8,118.3c-0.5-2-1.2-3.4-1.2-4.7c0.1-1.4,0.8-2.8,1.3-4.2c1.3,1.1,3,2,3.9,3.4c0.7,1.1,0.4,2.8,0.6,5
		c2-1.5,3.2-2.8,4.8-3.5c1-0.5,3.3-0.4,3.5,0.1c0.5,1.2,0.7,3.7,0.1,4c-6.4,3.3-2.4,6,0.6,8.7c-1.6,3.1-3.7,3.6-6,1.3
		c-2.4-2.4-3.8-1.7-5.5,0.7c-0.8,1.2-2.5,1.7-3.8,2.5c-0.2-1.6-0.3-3.3-0.7-4.8c-0.4-1.4-0.9-3.7-1.7-3.9c-2.4-0.6-5-0.8-4.2-4
		c0.2-0.6,3.5-0.5,5.4-0.6C353.5,118.3,354.1,118.4,355.8,118.3z"/>
	<path d="M377.7,186.7c-0.3-3.4-0.5-6.1-0.7-8.7c0.7-0.3,1.4-0.5,2.1-0.8c1.5,2.5,3.1,5,5,8c1.3-0.7,2.6-1.8,4-2.2
		c1.2-0.4,2.7,0,4,0c-0.5,1.6-0.6,3.4-1.5,4.6c-0.9,1.2-2.6,1.8-4.3,2.9c1.7,1.8,3.2,2.9,4.1,4.4c0.5,0.9,0,2.3,0,3.5
		c-1.2-0.2-2.8-0.1-3.6-0.8c-2.6-2.5-4.6-3.1-6.5,0.8c-0.5,1.1-2.3,1.7-3.5,2.5c-0.2-1.5-1.1-3.3-0.5-4.4c1.6-3.2,0.5-4-2.5-4.7
		c-1.5-0.4-2.7-2.2-4.1-3.4c1.6-0.5,3.2-1,4.9-1.3C375.6,186.8,376.7,186.8,377.7,186.7z"/>
	<path d="M317.8,234.3c-0.5-0.5-0.8-1.5-0.6-2.1c1.1-2.9,0.1-4.5-2.9-5.1c-3.4-0.6-5.3,0.8-6.1,4c-0.2,0.8-1.7,1.7-2.8,2
		c-1.9,0.5-3.9,0.8-5.9,1c-0.2,0-0.5,0-0.7,0c-0.2,0.4-0.5,0.7-1,0.8c-1.2,0.4-2.3,0.5-3.5,0.6c-0.2,0.4-0.6,0.7-1.3,0.7
		c-0.3,0-0.5-0.1-0.7-0.2c-0.1,0-0.2,0.1-0.2,0.1c0,0-0.4,0.2-0.4,0.2c-0.2,0.1-0.3,0.1-0.5,0.2c-0.3,0.1-0.6,0.3-0.9,0.4
		c-0.6,0.3-1.3,0.6-1.9,1c-0.4,0.2-0.8,0.4-1.2,0.6c-2.2,4.4-4.4,8.8-6.6,13.2c-5.4,11-10.6,22-16.2,33
		c-5.6,10.9-11.5,21.7-17.2,32.6c-1.4,2.6-1,4.5,2,5.4c2.6,0.9,4.9,1.5,6.3-2.1c2-5,4.4-9.9,6.8-14.8c10.8-21,21.7-42,32.5-63.1
		c1.7-3.4,4.1-5.6,9.4-5c-4.7,2.4-6.2,5.3-4.7,9.2c0.3,0.7-0.3,1.8-0.8,2.7c-7.1,14-14.1,28-21.2,41.9c-2.6,5.1-5.5,10.1-8.2,15.1
		c-1.2,2.3-2.8,4.7,0.5,6.4c3.3,1.6,6.2,0.7,7.9-2.5c3.7-7.2,7-14.7,10.9-21.8c1.7-3.2,4.3-6.1,6.7-9.5
		c2.6-14.2,12.7-26.4,20.1-39.7C318.6,239.1,321.4,238.2,317.8,234.3z"/>
	<path d="M334.5,210.1c-1-1.3-3.9-2.5-5.3-2c-14.4,5.1-28.7,10.5-43.1,15.8c-30.9,11.4-61.9,22.9-92.8,34.3c-1.2,0.5-2.7,1.3-3.8,1
		c-3.1-0.8-5.4-1.1-7,2.6c-0.5,1.1-3.2,1.3-5.4,2.1c2.1-6.3,2.1-6.2-4.6-6.2c-1.3,0-2.8-0.9-3.8-0.5c-1.2,0.5-2,1.9-2.9,2.9
		c1.1,0.7,2.1,1.7,3.3,2.1c0.6,0.2,1.6-0.7,2.2-0.9c0.4,4.7-2.9,6.1-6.9,7.5c-12.3,4.2-24.4,8.8-36.6,13.3c-1.5,0.6-3.6,1.5-4,2.6
		c-0.6,1.8-0.6,4.3,0.3,5.8c0.6,1.1,3.5,1.9,4.9,1.4c18.2-6.4,36.2-13.1,54.3-19.8c13.4-5,26.7-10.1,40.1-15.1
		c17.7-6.6,35.5-13.2,53.2-19.7c3.6-1.3,7.4-2.4,11.1-3.6c0,0,0,0,0,0c0.2-0.1,0.4-0.1,0.6-0.1c0.2,0,0.4,0,0.6,0.1
		c0.1-0.1,0.1-0.1,0.2-0.2c0.1-0.1,0.3-0.2,0.5-0.3c0.1,0,0.1-0.1,0.2-0.1c0,0,0,0,0,0c0,0,0,0,0,0c0,0,0,0,0.1,0
		c0.1,0,0.1-0.1,0.2-0.1c0,0,0,0,0,0c0,0,0,0,0,0c0.1,0,0.3-0.1,0.4-0.1c0.1,0,0.1,0,0.2,0l0-0.2c1.5-0.7,2.9-1.6,4.4-2
		c3.3-0.9,6.9-1.1,10.1-2.3c4.5-1.7,8.7-4.1,13.1-6.1c4.9-2.1,9.9-3.9,14.8-6.1C336.5,214.9,336.1,212.1,334.5,210.1z"/>
	<path d="M197.5,173.7c-30.6,11.3-61.3,22.6-91.9,34c-2.3,0.9-4.6,2-6.9,2.9c-3.3,1.2-6,1.6-6.8-0.4c-0.7-1.9,1.7-3,4.6-4.1
		c24.8-9.2,49.7-18.3,74.5-27.5c25.2-9.4,50.4-18.8,75.6-28.2c17.1-6.3,34.3-12.5,51.5-18.8c3.9-1.4,5.9-1,6.6,0.6
		c0.3,0.6-1.5,2.6-2.6,3.1c-34.8,13-69.6,25.8-104.4,38.7C197.6,173.8,197.6,173.7,197.5,173.7z"/>
	<path d="M232.6,335.1c-2-0.8-4.1-1.1-5.3-2.4c-0.8-0.8-1.1-3.2-0.5-4.4c3.5-8,7.4-15.8,11.1-23.7c3.7-7.8,7.6-15.4,11.2-23.2
		c4.9-10.7,9.6-21.4,14.2-32.2c1.6-3.6,3-6.3,7.6-4c2.6,1.3,3.3,2.7,2,5.5c-8.3,17.6-16.4,35.2-24.6,52.8c-4.2,9-8.3,18.1-12.5,27.1
		C235.2,332,234,333.2,232.6,335.1z"/>
	<path d="M251.3,253.8c-0.8,2.9-1,4.2-1.5,5.3c-4,8.6-8.2,17-12.1,25.6c-3.1,6.8-5.8,13.7-8.9,20.5c-3.3,7.4-6.9,14.8-10.3,22.1
		c-0.7,1.5-1.5,3-2,4.5c-0.8,2.7-1.6,5.5-5.3,3.9c-2.9-1.3-5.1-3-3.2-6.9c6-12.8,11.9-25.6,17.8-38.5c3.6-8,7.2-16,10.8-24
		c1.6-3.5,3-7,4.9-10.2c0.9-1.5,2.8-2.9,4.5-3.3C247.5,252.5,249.4,253.4,251.3,253.8z"/>
	<path d="M300,303.3c-2-0.8-4-1.1-5.1-2.3c-0.8-0.9-1.1-3.1-0.6-4.4c2.1-5.4,4.5-10.6,7-15.8c6.1-12.7,12.3-25.2,18.3-37.9
		c2.7-5.7,5-11.5,7.4-17.4c1.1-2.8,2.4-5.4,6.1-4.3c2.8,0.8,3.7,4.9,2.2,8.1c-5.2,11.4-10.2,22.9-15.5,34.2
		c-5.7,12.1-11.5,24.1-17.3,36.2C301.8,300.9,301,301.9,300,303.3z"/>
	<path d="M135.4,121.9c-0.6,1.7-0.8,2.8-1.3,3.7c-9.6,20.6-19.2,41.1-28.7,61.7c-1.6,3.4-3,7-4.4,10.5c-1.2,3.1-3.2,4.2-6.2,2.5
		c-2.6-1.5-3.4-3.4-2-6.6c8-17.3,15.8-34.7,23.6-52c2.9-6.5,5.7-13.1,9-19.4c0.7-1.4,2.9-2.7,4.5-2.8
		C131.6,119.5,133.4,121,135.4,121.9z"/>
	<path d="M181.6,94.3c-0.5,1.2-0.9,2-1.2,2.9c-4.4,9.7-8.7,19.5-13.2,29.2c-3,6.4-6.5,12.7-9.6,19.1c-1.4,2.8-2.3,5.8-3.5,8.6
		c-3.8,9.3-7.7,18.7-11.6,28c-1.4,3.4-3.7,5.2-7.3,3.2c-3.9-2.1-1.9-4.9-0.7-7.7c3.3-7.2,6.2-14.6,9.8-21.6c2.4-4.8,6.2-9,8.4-13.9
		c2.7-6,4.7-12.3,6.7-18.6c0.3-1.1-0.8-2.6-1-3.9c-0.1-1.6-0.4-3.6,0.3-4.9c0.6-1,2.7-0.9,4.1-1.5c1.5-0.6,3.7-1.1,4.3-2.3
		c2.5-4.7,4.2-9.7,6.7-14.4c0.9-1.7,3-2.8,4.8-3.8C179.1,92.4,180.4,93.6,181.6,94.3z"/>
	<path d="M159,105.4c-3.4,6.6-7,12.8-9.8,19.3c-2.8,6.3-4.7,13-7.1,19.4c-1.4,3.9-3,7.7-4.7,11.4c-5.2,11.4-10.4,22.9-16,34.2
		c-0.9,1.8-3.5,3.7-5.4,3.8c-3.9,0.1-5-2.4-3.4-6.1c6.1-13.7,12-27.6,18.4-41.2c2.7-5.8,6.4-11.1,9.4-16.8
		c3.8-7.3,7.4-14.8,11.1-22.3C154,102,155,101.8,159,105.4z"/>
	<path d="M184.1,169.7c-1.6-0.5-3.7-0.7-4.8-1.8c-0.9-0.9-1.2-3.2-0.7-4.4c2.6-6.4,4-14.4,8.6-18.6c6.7-6.1,3.8-15.9,10.9-21.1
		c0.6-0.4,0.5-2.7-0.1-3.5c-1.8-2.6-0.4-4.3,1.6-5.3c6.2-3,7.2-9,9.1-14.6c1.3-3.7,2.4-7.5,4.1-11.1c0.5-1,2.6-1.3,4-1.9
		c0.7,1.8,2.6,4,2.1,5.2c-5.1,11.7-10.5,23.2-16,34.7c-1.5,3.2-2.5,6-0.7,9.5c0.5,1,0.3,3.5-0.5,3.9c-7.2,4.1-7.9,12.2-11.5,18.4
		c-1.5,2.6-2.6,5.4-3.9,8C185.8,167.9,185,168.6,184.1,169.7z"/>
	<path d="M228,263.2c-0.5,2.4-0.4,4.3-1.2,5.8c-3.6,7.7-7.4,15.2-11,22.8c-3.1,6.7-6.1,13.5-9.1,20.3c-2.8,6.2-5.6,12.4-8.3,18.6
		c-1.3,2.9-3.3,4.2-6.3,2.6c-2.7-1.5-3.2-3.3-1.5-6.5c3.3-6.2,5.5-13,8.6-19.4c3.9-8.3,8.3-16.4,12.2-24.8c2.9-6.1,5.1-12.5,8-18.6
		c0.6-1.3,2.4-2.7,3.8-2.8C224.6,261,226.2,262.4,228,263.2z"/>
	<path d="M161.6,178.4c-1.9-0.7-4.3-0.9-5.3-2.2c-0.9-1.1-0.8-3.8-0.1-5.3c8.5-17.5,17.3-35,25.9-52.5c0.7-1.5,1.4-3.1,1.5-4.7
		c0.9-8.9,8.3-14.6,11.2-22.6c0.3-0.8,2.8-0.8,4.2-1.1c0.2,1.3,0.8,2.7,0.5,3.8c-0.4,1.7-1.6,3.3-2.2,5c-1.8,4.9-3.1,10-5.4,14.8
		c-2.5,5.4-6.2,10.2-8.6,15.6c-2.5,5.7-3.9,11.8-6.1,17.7c-0.8,2.3-2.5,4.2-3.5,6.5c-3.3,7.2-6.5,14.6-9.9,21.8
		C163.6,176.2,162.7,177,161.6,178.4z"/>
	<path d="M175.3,332.4c-1-2.6-2-5.2-2.9-7.9c-0.2-0.6,0.1-1.6-0.2-1.9c-4.7-3.9-2.1-4.1,1.9-4.1c0.9,0,2.1-1.5,2.6-2.6
		c4.2-8.5,8.3-17,12.3-25.6c2.6-5.6,4.8-11.3,7.3-16.9c1.3-2.8,3.1-5.9,6.7-3.6c2.8,1.8,3.4,4.5,1.5,8.1
		c-5.1,10.1-9.5,20.6-14.5,30.7c-3.9,8-8.2,15.9-12.3,23.8C176.9,332.5,176.1,332.4,175.3,332.4z"/>
	<path d="M206.9,161.3c-1.7-0.5-3.8-0.6-4.9-1.7c-0.9-0.9-1.5-3.2-1-4.5c2.2-5.4,4.1-11.1,7.5-15.6c4.3-5.8,6.5-12.1,8.9-18.7
		c1.6-4.6,4.7-8.6,7-13c2.6-5.2,4.8-10.6,7.7-15.6c0.9-1.5,3.5-2,5.3-2.9c0.3,2,1.4,4.5,0.6,6c-3.4,6.9-7.4,13.4-11.1,20.1
		c-0.3,0.6-0.8,1.1-1,1.7c-2.7,7.4-5.1,14.8-8,22.1c-2.7,6.7-6,13.3-9.1,19.9C208.4,159.9,207.7,160.4,206.9,161.3z"/>
	<path d="M183.9,280.6c-0.7,1.8-1.2,3.3-1.9,4.8c-3.9,8.6-8.4,17-11.6,25.8c-1.3,3.6-0.9,7.9-4.9,9.9c-2,1-4.9,2-6.5,1.2
		c-2.1-1.1-4.1-3.6-4.9-6c-0.8-2.6,0.8-4.5,3.9-5.2c1.3-0.3,2.6-2,3.2-3.3c3.9-8,7.6-16.2,11.5-24.2c0.7-1.5,1.3-3.2,2.5-4.3
		c1.1-1,3-1.7,4.3-1.5C181,278,182.3,279.4,183.9,280.6z"/>
	<path d="M299.6,118.1c-1.2,3-2.5,5.6-3.4,8.3c-1.5,4.5-4.1,3-7.1,1.8c-2.3-1-10.8,2.6-12,4.9c-1.6,3.1-4.5,3.8-6.6,2.2
		c-1.5-1.1-2.5-4.9-1.8-6.6c2.8-6.6,4-14,10.1-19.1c2.5-2,4.7-2.3,6.5-0.4c1,1.1,0.5,3.6,0.5,5.5c0,0.4-0.5,0.9-0.6,1.3
		c-0.3,1.7-1.3,4.5-0.6,4.9c2.7,1.8,3.6-0.6,4.4-2.7c1.3-3.4,4.3-3.4,7-3.1C297.1,115.4,298.1,116.9,299.6,118.1z"/>
	<path d="M255.4,96.5c-3.6,7.3-7.4,14.4-10.6,21.8c-3.8,8.7-7.1,17.7-10.7,26.5c-0.8,2-1.4,4.4-2.9,5.7c-1.4,1.2-4.1,1.8-5.7,1.3
		c-1.2-0.4-2.6-3.7-2.1-4.8c3.4-6.9,7.5-13.4,11.1-20.2c3.3-6.3,6.1-12.9,9.1-19.4c1.7-3.6,3-7.4,5.1-10.7c0.8-1.3,3.2-1.6,4.9-2.4
		C254.2,95,254.8,95.7,255.4,96.5z"/>
	<path d="M278,106c-3.5,0.6-4.7,5.7-9.4,4.4c-0.5-0.1-2,2.1-2.6,3.5c-3.9,9-7.5,18-11.4,26.9c-1.1,2.5-2.7,5-6.1,3.1
		c-2.9-1.7-3.4-4.1-1.7-7.2c5.3-9.8,10.4-19.7,15.6-29.6c1.5-2.8,2.9-5.6,4.9-9.5c3.5,2.1,7.2,4.3,10.9,6.6
		C278.1,104.9,278,105.4,278,106z"/>
	<path d="M148.4,315.8c-2-1-4-1.5-5.2-2.8c-0.9-0.9-1.4-3.2-0.9-4.4c3-7.1,6.4-13.9,9.5-21c1.4-3.3,4-2.3,5.8-1.3
		c1.5,0.8,2.9,2.7,3.3,4.3c0.3,1.3-0.9,3.1-1.6,4.6c-2.4,5.3-4.8,10.5-7.3,15.7C151.2,312.6,149.8,313.9,148.4,315.8z"/>
	<g>
		<path d="M51.4,153.7l-3.1,11.7l-2.9-0.8c-1.8-0.5-3-0.7-3.5-0.6c-0.5,0.1-0.9,0.6-1.1,1.4c-0.2,0.7-0.1,1.3,0.2,1.6
			s1.3,0.8,2.9,1.2l15.2,4c1.4,0.4,2.4,0.5,2.9,0.3c0.5-0.1,0.9-0.6,1.1-1.4c0.2-0.9,0.1-1.5-0.3-1.9c-0.4-0.4-1.4-0.9-2.8-1.2
			l-3.7-1l-0.6,2.4l-4.8-1.3l3.6-13.7l17,4.4l-1.9,7.4l-2.5,0.5c0.8,1.1,1.2,2.3,1.4,3.6c0.2,1.3,0,2.8-0.4,4.5
			c-0.5,2-1.3,3.7-2.5,5.3c-1.1,1.5-2.3,2.6-3.5,3.3c-1.2,0.6-2.4,0.9-3.6,0.9c-1.1-0.1-2.8-0.4-5-0.9l-9.4-2.5
			c-3-0.8-5.2-1.6-6.4-2.4c-1.2-0.8-2.1-2.5-2.7-5c-0.6-2.5-0.4-5.5,0.5-9c0.9-3.4,2.1-6.2,3.7-8.2c1.6-2,3.1-3.2,4.7-3.5
			c1.5-0.3,3.6-0.2,6.2,0.5L51.4,153.7z"/>
		<path d="M43.5,141.2l3.9-7.7c2.6-5.1,4.5-8.5,5.7-10.2c1.2-1.7,2.6-2.8,4.4-3.3c1.7-0.6,3.8-0.2,6.3,1c2.3,1.2,3.6,2.3,4,3.5
			c0.4,1.2,0,3-1,5.5c1.5-2,2.7-3.1,3.7-3.6c1-0.4,1.8-0.6,2.4-0.5c0.6,0.1,2.1,0.7,4.4,1.9l7.7,3.9l-5.1,10l-9.7-4.9
			c-1.6-0.8-2.6-1.1-3.2-0.9c-0.6,0.2-1.2,1-2,2.5l13.1,6.7L72.6,156L43.5,141.2z M54,132.9l6.5,3.3c0.6-1.2,0.9-2.1,0.9-2.7
			c0-0.6-0.6-1.2-1.9-1.9l-1.6-0.8c-0.9-0.5-1.6-0.5-2.2-0.2C55.2,130.9,54.6,131.6,54,132.9z"/>
		<path d="M93.6,99.1c2.6,2.1,4.3,3.6,5.2,4.6c0.9,1,1.5,2.4,1.6,4c0.1,1.6-0.2,3.4-0.9,5.3c-0.8,1.9-2,3.9-3.6,5.9
			c-1.6,1.9-3.2,3.5-4.9,4.7c-1.7,1.2-3.4,1.9-5,2.1c-1.6,0.2-3.1,0-4.3-0.7c-1.2-0.7-3.1-2.1-5.7-4.2l-4.3-3.5
			c-2.6-2.1-4.3-3.6-5.2-4.6c-0.9-1-1.5-2.4-1.6-4c-0.1-1.6,0.2-3.4,0.9-5.3c0.8-1.9,2-3.9,3.6-5.9c1.6-1.9,3.2-3.5,4.9-4.7
			c1.7-1.2,3.4-1.9,5-2.1c1.7-0.2,3.1,0,4.3,0.7c1.2,0.7,3.1,2.1,5.7,4.2L93.6,99.1z M77.6,101.7c-1.2-1-2-1.5-2.5-1.6
			c-0.5-0.1-1,0.2-1.4,0.8c-0.4,0.5-0.6,1-0.5,1.5c0.1,0.5,0.7,1.2,2,2.3l11.9,9.6c1.5,1.2,2.5,1.8,2.9,2c0.5,0.1,1-0.2,1.5-0.8
			c0.5-0.6,0.7-1.2,0.4-1.7c-0.3-0.5-1.1-1.4-2.6-2.6L77.6,101.7z"/>
		<path d="M106.9,62.7l13.8,16.9c1.6,1.9,2.6,3.3,3,4.3c0.5,0.9,0.6,2.1,0.4,3.7c-0.2,1.5-0.9,3.1-1.9,4.7c-1.1,1.6-2.6,3.2-4.6,4.8
			c-2.2,1.8-4.3,3.1-6.3,3.9c-2.1,0.9-3.8,1.2-5.3,1.1c-1.5-0.1-2.6-0.6-3.5-1.3c-0.9-0.8-2.5-2.6-4.8-5.4l-12.2-15l9.4-7.7
			l15.5,18.9c0.9,1.1,1.6,1.7,2,1.9c0.4,0.2,0.9,0,1.4-0.4c0.6-0.5,0.8-1,0.7-1.4c-0.1-0.5-0.7-1.3-1.7-2.6L97.6,70.4L106.9,62.7z"
			/>
		<path d="M114.7,57.6l10.7-6c2.9-1.6,5.2-2.7,6.9-3.2c1.7-0.5,3.2-0.7,4.3-0.6c1.1,0.2,2,0.6,2.8,1.3c0.8,0.7,1.6,1.9,2.6,3.7
			l1.4,2.5c1,1.8,1.5,3.3,1.4,4.4c-0.1,1.1-0.7,2.3-1.9,3.6c-1.2,1.2-2.9,2.5-5.3,3.8l-2.8,1.6l6.4,11.5l-10.6,5.9L114.7,57.6z
			 M128,56.6l4.1,7.3c0.3-0.2,0.6-0.3,0.8-0.4c1-0.5,1.6-1.1,1.7-1.6c0.2-0.5,0-1.3-0.6-2.4l-1.3-2.3c-0.5-1-1.1-1.5-1.7-1.5
			C130.4,55.5,129.4,55.8,128,56.6z"/>
		<path d="M176.6,50c1.2,3.1,1.9,5.3,2.2,6.6c0.3,1.4,0.1,2.8-0.6,4.2s-1.8,2.8-3.5,4.1c-1.6,1.3-3.7,2.4-6.1,3.3
			c-2.3,0.9-4.5,1.4-6.6,1.6c-2.1,0.2-3.9,0-5.4-0.7c-1.5-0.6-2.7-1.5-3.4-2.7c-0.7-1.2-1.6-3.3-2.9-6.5l-2-5.2
			c-1.2-3.1-1.9-5.3-2.2-6.6c-0.3-1.4-0.1-2.8,0.6-4.2c0.7-1.5,1.8-2.8,3.5-4.1s3.7-2.4,6.1-3.3c2.3-0.9,4.5-1.4,6.6-1.6
			c2.1-0.2,3.9,0,5.4,0.7c1.5,0.6,2.7,1.5,3.4,2.7c0.7,1.2,1.6,3.3,2.9,6.5L176.6,50z M161.5,44.4c-0.5-1.4-1-2.3-1.4-2.6
			c-0.4-0.3-0.9-0.3-1.6-0.1c-0.6,0.2-1,0.6-1.2,1c-0.2,0.4,0,1.4,0.6,3l5.5,14.2c0.7,1.8,1.2,2.8,1.6,3.2c0.4,0.3,0.9,0.4,1.7,0.1
			c0.8-0.3,1.2-0.7,1.2-1.3s-0.3-1.7-1-3.5L161.5,44.4z"/>
		<path d="M218.7,25.8l2.7,32.5l-10.6,0.9l-1.9-22l-2.4,22.3l-7.5,0.6l-6.2-21.1l1.8,21.5l-10.6,0.9l-2.7-32.5l15.6-1.3
			c0.6,1.9,1.3,4.2,2,6.8l2.4,8.1l1.5-15.4L218.7,25.8z"/>
		<path d="M250.7,30.6l1.4,33.4l-12.2-2.1l0.3-5.9l-4.3-0.7l-1.7,5.7l-12.4-2.1l11.6-31.2L250.7,30.6z M240.8,50.3
			c0-3.7,0.2-8.4,0.5-13.8c-2.3,6-3.8,10.3-4.6,13.1L240.8,50.3z"/>
		<path d="M289.5,43.2l-11.4,30.6l-10-3.7L267.4,54L262.2,68l-9.5-3.5l11.4-30.6l9.5,3.5l1.3,16.2l5.1-13.8L289.5,43.2z"/>
		<path d="M307.5,52.8l-15.3,28.8l-10.7-5.7l15.3-28.8L307.5,52.8z"/>
		<path d="M331.8,68.9l-13.3,30.6l-10.1-7.2l2.9-5.2l-3.5-2.5l-4,4.4l-10.2-7.3l24-23L331.8,68.9z M314.4,82.2
			c1.6-3.4,3.8-7.4,6.5-12.2c-4.6,4.4-7.9,7.6-9.9,9.8L314.4,82.2z"/>
	</g>
	<path d="M305.5,171.5c-7.7,2-9,0.2-9-13.2c7.5,2,9.8,6.6,8.8,13.5C305.3,171.8,305.5,171.5,305.5,171.5z"/>
	<path d="M380.5,213.7c1.6-4.1,2.9-7.3,4.1-10.4c2.1,1,5.8,1.6,6.2,3C392.1,211.4,389.3,214,380.5,213.7z"/>
</g>
</svg>
